<svg width="32" height="32" viewBox="0 0 32 32" fill="none" xmlns="http://www.w3.org/2000/svg">
<path d="M19.188 19.625V19.4179L19.0416 19.2714L18.6666 18.8964L18.3357 18.5656L17.9837 18.8738C16.5781 20.1042 14.6962 20.813 12.688 20.813C8.14642 20.813 4.5 17.2192 4.5 12.688C4.5 8.1521 8.15118 4.5 12.688 4.5C17.2201 4.5 20.813 8.14638 20.813 12.688C20.813 14.6962 20.1042 16.5781 18.8738 17.9837L18.5656 18.3357L18.8964 18.6666L19.2714 19.0416L19.4179 19.188H19.625H20.4809L26.6059 25.313L25.313 26.6059L19.188 20.4809V19.625ZM12.688 19.188C16.2772 19.188 19.188 16.2761 19.188 12.688C19.188 9.09986 16.2761 6.188 12.688 6.188C9.09986 6.188 6.188 9.09986 6.188 12.688C6.188 16.2761 9.09986 19.188 12.688 19.188Z" fill="white" stroke="black"/>
</svg>
