<svg width="218" height="26" viewBox="0 0 218 26" fill="none" xmlns="http://www.w3.org/2000/svg">
<path d="M5.78777 17.18C4.71977 17.18 3.80177 17.018 3.03377 16.694C2.26577 16.37 1.68377 15.944 1.28777 15.416C0.891766 14.888 0.681766 14.318 0.657766 13.706C0.657766 13.598 0.693766 13.508 0.765766 13.436C0.837766 13.364 0.927766 13.328 1.03577 13.328H2.63777C2.78177 13.328 2.88977 13.358 2.96177 13.418C3.04577 13.466 3.12377 13.55 3.19577 13.67C3.31577 14.078 3.59177 14.42 4.02377 14.696C4.45577 14.972 5.04377 15.11 5.78777 15.11C6.63977 15.11 7.28177 14.972 7.71377 14.696C8.14577 14.408 8.36177 14.012 8.36177 13.508C8.36177 13.172 8.24777 12.896 8.01977 12.68C7.80377 12.464 7.47377 12.278 7.02977 12.122C6.59777 11.966 5.94977 11.774 5.08577 11.546C3.66977 11.21 2.63177 10.766 1.97177 10.214C1.32377 9.65 0.999766 8.852 0.999766 7.82C0.999766 7.124 1.18577 6.506 1.55777 5.966C1.94177 5.426 2.48777 5 3.19577 4.688C3.91577 4.376 4.74977 4.22 5.69777 4.22C6.68177 4.22 7.53377 4.394 8.25377 4.742C8.97377 5.09 9.51977 5.528 9.89177 6.056C10.2758 6.572 10.4798 7.088 10.5038 7.604C10.5038 7.712 10.4678 7.802 10.3958 7.874C10.3238 7.946 10.2338 7.982 10.1258 7.982H8.45177C8.19977 7.982 8.02577 7.868 7.92977 7.64C7.85777 7.256 7.61777 6.938 7.20977 6.686C6.80177 6.422 6.29777 6.29 5.69777 6.29C5.02577 6.29 4.49777 6.416 4.11377 6.668C3.72977 6.92 3.53777 7.286 3.53777 7.766C3.53777 8.102 3.63377 8.378 3.82577 8.594C4.01777 8.81 4.31777 9.002 4.72577 9.17C5.14577 9.338 5.74577 9.524 6.52577 9.728C7.58177 9.968 8.42177 10.238 9.04577 10.538C9.68177 10.838 10.1498 11.216 10.4498 11.672C10.7498 12.128 10.8998 12.71 10.8998 13.418C10.8998 14.186 10.6838 14.858 10.2518 15.434C9.83177 15.998 9.23177 16.43 8.45177 16.73C7.68377 17.03 6.79577 17.18 5.78777 17.18ZM16.7786 17.18C15.4466 17.18 14.3846 16.796 13.5926 16.028C12.8126 15.248 12.3986 14.156 12.3506 12.752L12.3326 12.302L12.3506 11.852C12.4106 10.484 12.8306 9.41 13.6106 8.63C14.4026 7.85 15.4586 7.46 16.7786 7.46C18.1946 7.46 19.2866 7.892 20.0546 8.756C20.8346 9.62 21.2246 10.772 21.2246 12.212V12.59C21.2246 12.71 21.1826 12.812 21.0986 12.896C21.0146 12.98 20.9066 13.022 20.7746 13.022H14.7986V13.166C14.8226 13.826 15.0026 14.384 15.3386 14.84C15.6866 15.284 16.1606 15.506 16.7606 15.506C17.4686 15.506 18.0386 15.23 18.4706 14.678C18.5786 14.546 18.6626 14.462 18.7226 14.426C18.7946 14.39 18.8966 14.372 19.0286 14.372H20.5766C20.6846 14.372 20.7746 14.408 20.8466 14.48C20.9306 14.54 20.9726 14.618 20.9726 14.714C20.9726 15.002 20.7986 15.344 20.4506 15.74C20.1146 16.124 19.6286 16.46 18.9926 16.748C18.3566 17.036 17.6186 17.18 16.7786 17.18ZM18.7766 11.51V11.456C18.7766 10.748 18.5966 10.178 18.2366 9.746C17.8886 9.314 17.4026 9.098 16.7786 9.098C16.1546 9.098 15.6686 9.314 15.3206 9.746C14.9726 10.178 14.7986 10.748 14.7986 11.456V11.51H18.7766ZM27.1673 17.18C25.8353 17.18 24.7733 16.796 23.9813 16.028C23.2013 15.248 22.7873 14.156 22.7393 12.752L22.7213 12.302L22.7393 11.852C22.7993 10.484 23.2193 9.41 23.9993 8.63C24.7913 7.85 25.8473 7.46 27.1673 7.46C28.5833 7.46 29.6753 7.892 30.4433 8.756C31.2233 9.62 31.6133 10.772 31.6133 12.212V12.59C31.6133 12.71 31.5713 12.812 31.4873 12.896C31.4033 12.98 31.2953 13.022 31.1633 13.022H25.1873V13.166C25.2113 13.826 25.3913 14.384 25.7273 14.84C26.0753 15.284 26.5493 15.506 27.1493 15.506C27.8573 15.506 28.4273 15.23 28.8593 14.678C28.9673 14.546 29.0513 14.462 29.1113 14.426C29.1833 14.39 29.2853 14.372 29.4173 14.372H30.9653C31.0733 14.372 31.1633 14.408 31.2353 14.48C31.3193 14.54 31.3613 14.618 31.3613 14.714C31.3613 15.002 31.1873 15.344 30.8393 15.74C30.5033 16.124 30.0173 16.46 29.3813 16.748C28.7453 17.036 28.0073 17.18 27.1673 17.18ZM29.1653 11.51V11.456C29.1653 10.748 28.9853 10.178 28.6253 9.746C28.2773 9.314 27.7913 9.098 27.1673 9.098C26.5433 9.098 26.0573 9.314 25.7093 9.746C25.3613 10.178 25.1873 10.748 25.1873 11.456V11.51H29.1653ZM38.0692 17C37.9492 17 37.8472 16.958 37.7632 16.874C37.6792 16.79 37.6372 16.688 37.6372 16.568V8.072C37.6372 7.952 37.6792 7.85 37.7632 7.766C37.8472 7.682 37.9492 7.64 38.0692 7.64H39.4732C39.5932 7.64 39.6952 7.682 39.7792 7.766C39.8632 7.85 39.9052 7.952 39.9052 8.072V8.684C40.5292 7.868 41.3992 7.46 42.5152 7.46C43.8472 7.46 44.7772 7.994 45.3052 9.062C45.5932 8.582 46.0012 8.198 46.5292 7.91C47.0572 7.61 47.6272 7.46 48.2392 7.46C49.2232 7.46 50.0272 7.796 50.6512 8.468C51.2752 9.14 51.5872 10.118 51.5872 11.402V16.568C51.5872 16.688 51.5452 16.79 51.4612 16.874C51.3892 16.958 51.2872 17 51.1552 17H49.6792C49.5592 17 49.4572 16.958 49.3732 16.874C49.2892 16.79 49.2472 16.688 49.2472 16.568V11.546C49.2472 10.79 49.0852 10.244 48.7612 9.908C48.4492 9.56 48.0292 9.386 47.5012 9.386C47.0332 9.386 46.6312 9.56 46.2952 9.908C45.9712 10.256 45.8092 10.802 45.8092 11.546V16.568C45.8092 16.688 45.7672 16.79 45.6832 16.874C45.5992 16.958 45.4972 17 45.3772 17H43.9012C43.7812 17 43.6792 16.958 43.5952 16.874C43.5112 16.79 43.4692 16.688 43.4692 16.568V11.546C43.4692 10.79 43.3012 10.244 42.9652 9.908C42.6412 9.56 42.2272 9.386 41.7232 9.386C41.2432 9.386 40.8352 9.56 40.4992 9.908C40.1752 10.256 40.0132 10.802 40.0132 11.546V16.568C40.0132 16.688 39.9712 16.79 39.8872 16.874C39.8032 16.958 39.7012 17 39.5812 17H38.0692ZM58.0194 17.18C56.6154 17.18 55.5294 16.82 54.7614 16.1C53.9934 15.368 53.5794 14.372 53.5194 13.112L53.5014 12.32L53.5194 11.528C53.5794 10.28 53.9994 9.29 54.7794 8.558C55.5594 7.826 56.6394 7.46 58.0194 7.46C59.3994 7.46 60.4794 7.826 61.2594 8.558C62.0394 9.29 62.4594 10.28 62.5194 11.528C62.5314 11.672 62.5374 11.936 62.5374 12.32C62.5374 12.704 62.5314 12.968 62.5194 13.112C62.4594 14.372 62.0454 15.368 61.2774 16.1C60.5094 16.82 59.4234 17.18 58.0194 17.18ZM58.0194 15.398C58.6554 15.398 59.1474 15.2 59.4954 14.804C59.8434 14.396 60.0354 13.802 60.0714 13.022C60.0834 12.902 60.0894 12.668 60.0894 12.32C60.0894 11.972 60.0834 11.738 60.0714 11.618C60.0354 10.838 59.8434 10.25 59.4954 9.854C59.1474 9.446 58.6554 9.242 58.0194 9.242C57.3834 9.242 56.8914 9.446 56.5434 9.854C56.1954 10.25 56.0034 10.838 55.9674 11.618L55.9494 12.32L55.9674 13.022C56.0034 13.802 56.1954 14.396 56.5434 14.804C56.8914 15.2 57.3834 15.398 58.0194 15.398ZM64.9638 17C64.8438 17 64.7418 16.958 64.6578 16.874C64.5738 16.79 64.5317 16.688 64.5317 16.568V8.09C64.5317 7.97 64.5738 7.868 64.6578 7.784C64.7418 7.688 64.8438 7.64 64.9638 7.64H66.4218C66.5538 7.64 66.6618 7.682 66.7458 7.766C66.8298 7.85 66.8718 7.958 66.8718 8.09V8.828C67.1598 8.444 67.5198 8.15 67.9518 7.946C68.3958 7.742 68.8998 7.64 69.4638 7.64H70.2018C70.3338 7.64 70.4358 7.682 70.5078 7.766C70.5918 7.838 70.6338 7.94 70.6338 8.072V9.368C70.6338 9.488 70.5918 9.59 70.5078 9.674C70.4358 9.758 70.3338 9.8 70.2018 9.8H68.7978C68.2338 9.8 67.7898 9.962 67.4658 10.286C67.1418 10.61 66.9798 11.054 66.9798 11.618V16.568C66.9798 16.688 66.9378 16.79 66.8538 16.874C66.7698 16.958 66.6618 17 66.5298 17H64.9638ZM75.9466 17.18C74.6146 17.18 73.5526 16.796 72.7606 16.028C71.9806 15.248 71.5666 14.156 71.5186 12.752L71.5006 12.302L71.5186 11.852C71.5786 10.484 71.9986 9.41 72.7786 8.63C73.5706 7.85 74.6266 7.46 75.9466 7.46C77.3626 7.46 78.4546 7.892 79.2226 8.756C80.0026 9.62 80.3926 10.772 80.3926 12.212V12.59C80.3926 12.71 80.3506 12.812 80.2666 12.896C80.1826 12.98 80.0746 13.022 79.9426 13.022H73.9666V13.166C73.9906 13.826 74.1706 14.384 74.5066 14.84C74.8546 15.284 75.3286 15.506 75.9286 15.506C76.6366 15.506 77.2066 15.23 77.6386 14.678C77.7466 14.546 77.8306 14.462 77.8906 14.426C77.9626 14.39 78.0646 14.372 78.1966 14.372H79.7446C79.8526 14.372 79.9426 14.408 80.0146 14.48C80.0986 14.54 80.1406 14.618 80.1406 14.714C80.1406 15.002 79.9666 15.344 79.6186 15.74C79.2826 16.124 78.7966 16.46 78.1606 16.748C77.5246 17.036 76.7866 17.18 75.9466 17.18ZM77.9446 11.51V11.456C77.9446 10.748 77.7646 10.178 77.4046 9.746C77.0566 9.314 76.5706 9.098 75.9466 9.098C75.3226 9.098 74.8366 9.314 74.4886 9.746C74.1406 10.178 73.9666 10.748 73.9666 11.456V11.51H77.9446ZM86.8485 17C86.7285 17 86.6265 16.958 86.5425 16.874C86.4585 16.79 86.4165 16.688 86.4165 16.568V8.09C86.4165 7.97 86.4585 7.868 86.5425 7.784C86.6265 7.688 86.7285 7.64 86.8485 7.64H88.3065C88.4385 7.64 88.5465 7.682 88.6305 7.766C88.7145 7.85 88.7565 7.958 88.7565 8.09V8.828C89.0445 8.444 89.4045 8.15 89.8365 7.946C90.2805 7.742 90.7845 7.64 91.3485 7.64H92.0865C92.2185 7.64 92.3205 7.682 92.3925 7.766C92.4765 7.838 92.5185 7.94 92.5185 8.072V9.368C92.5185 9.488 92.4765 9.59 92.3925 9.674C92.3205 9.758 92.2185 9.8 92.0865 9.8H90.6825C90.1185 9.8 89.6745 9.962 89.3505 10.286C89.0265 10.61 88.8645 11.054 88.8645 11.618V16.568C88.8645 16.688 88.8225 16.79 88.7385 16.874C88.6545 16.958 88.5465 17 88.4145 17H86.8485ZM97.8313 17.18C96.4993 17.18 95.4373 16.796 94.6453 16.028C93.8653 15.248 93.4513 14.156 93.4033 12.752L93.3853 12.302L93.4033 11.852C93.4633 10.484 93.8833 9.41 94.6633 8.63C95.4553 7.85 96.5113 7.46 97.8313 7.46C99.2473 7.46 100.339 7.892 101.107 8.756C101.887 9.62 102.277 10.772 102.277 12.212V12.59C102.277 12.71 102.235 12.812 102.151 12.896C102.067 12.98 101.959 13.022 101.827 13.022H95.8513V13.166C95.8753 13.826 96.0553 14.384 96.3913 14.84C96.7393 15.284 97.2133 15.506 97.8133 15.506C98.5213 15.506 99.0913 15.23 99.5233 14.678C99.6313 14.546 99.7153 14.462 99.7753 14.426C99.8473 14.39 99.9493 14.372 100.081 14.372H101.629C101.737 14.372 101.827 14.408 101.899 14.48C101.983 14.54 102.025 14.618 102.025 14.714C102.025 15.002 101.851 15.344 101.503 15.74C101.167 16.124 100.681 16.46 100.045 16.748C99.4093 17.036 98.6713 17.18 97.8313 17.18ZM99.8293 11.51V11.456C99.8293 10.748 99.6493 10.178 99.2893 9.746C98.9413 9.314 98.4553 9.098 97.8313 9.098C97.2073 9.098 96.7213 9.314 96.3733 9.746C96.0253 10.178 95.8513 10.748 95.8513 11.456V11.51H99.8293ZM107.166 17C106.986 17 106.848 16.964 106.752 16.892C106.656 16.808 106.578 16.694 106.518 16.55L103.152 8.198L103.116 8.036C103.116 7.928 103.152 7.838 103.224 7.766C103.308 7.682 103.404 7.64 103.512 7.64H104.97C105.198 7.64 105.354 7.754 105.438 7.982L107.832 14.3L110.226 7.982C110.262 7.898 110.316 7.82 110.388 7.748C110.472 7.676 110.574 7.64 110.694 7.64H112.17C112.266 7.64 112.35 7.682 112.422 7.766C112.506 7.838 112.548 7.928 112.548 8.036C112.548 8.108 112.542 8.162 112.53 8.198L109.146 16.55C109.086 16.694 109.008 16.808 108.912 16.892C108.816 16.964 108.678 17 108.498 17H107.166ZM114.55 6.092C114.43 6.092 114.328 6.05 114.244 5.966C114.16 5.882 114.118 5.78 114.118 5.66V4.364C114.118 4.244 114.16 4.142 114.244 4.058C114.328 3.974 114.43 3.932 114.55 3.932H116.188C116.308 3.932 116.41 3.974 116.494 4.058C116.59 4.142 116.638 4.244 116.638 4.364V5.66C116.638 5.78 116.596 5.882 116.512 5.966C116.428 6.05 116.32 6.092 116.188 6.092H114.55ZM114.622 17C114.502 17 114.4 16.958 114.316 16.874C114.232 16.79 114.19 16.688 114.19 16.568V8.072C114.19 7.952 114.232 7.85 114.316 7.766C114.4 7.682 114.502 7.64 114.622 7.64H116.116C116.248 7.64 116.35 7.682 116.422 7.766C116.506 7.838 116.548 7.94 116.548 8.072V16.568C116.548 16.688 116.506 16.79 116.422 16.874C116.35 16.958 116.248 17 116.116 17H114.622ZM122.968 17.18C121.636 17.18 120.574 16.796 119.782 16.028C119.002 15.248 118.588 14.156 118.54 12.752L118.522 12.302L118.54 11.852C118.6 10.484 119.02 9.41 119.8 8.63C120.592 7.85 121.648 7.46 122.968 7.46C124.384 7.46 125.476 7.892 126.244 8.756C127.024 9.62 127.414 10.772 127.414 12.212V12.59C127.414 12.71 127.372 12.812 127.288 12.896C127.204 12.98 127.096 13.022 126.964 13.022H120.988V13.166C121.012 13.826 121.192 14.384 121.528 14.84C121.876 15.284 122.35 15.506 122.95 15.506C123.658 15.506 124.228 15.23 124.66 14.678C124.768 14.546 124.852 14.462 124.912 14.426C124.984 14.39 125.086 14.372 125.218 14.372H126.766C126.874 14.372 126.964 14.408 127.036 14.48C127.12 14.54 127.162 14.618 127.162 14.714C127.162 15.002 126.988 15.344 126.64 15.74C126.304 16.124 125.818 16.46 125.182 16.748C124.546 17.036 123.808 17.18 122.968 17.18ZM124.966 11.51V11.456C124.966 10.748 124.786 10.178 124.426 9.746C124.078 9.314 123.592 9.098 122.968 9.098C122.344 9.098 121.858 9.314 121.51 9.746C121.162 10.178 120.988 10.748 120.988 11.456V11.51H124.966ZM131.617 17C131.461 17 131.335 16.964 131.239 16.892C131.155 16.808 131.083 16.694 131.023 16.55L128.449 8.198C128.437 8.162 128.431 8.108 128.431 8.036C128.431 7.928 128.467 7.838 128.539 7.766C128.623 7.682 128.713 7.64 128.809 7.64H130.141C130.273 7.64 130.381 7.676 130.465 7.748C130.549 7.82 130.603 7.898 130.627 7.982L132.391 13.94L134.263 8.036C134.299 7.928 134.359 7.838 134.443 7.766C134.539 7.682 134.659 7.64 134.803 7.64H135.703C135.847 7.64 135.961 7.682 136.045 7.766C136.141 7.838 136.207 7.928 136.243 8.036L138.115 13.94L139.879 7.982C139.891 7.898 139.939 7.82 140.023 7.748C140.119 7.676 140.227 7.64 140.347 7.64H141.679C141.787 7.64 141.877 7.682 141.949 7.766C142.033 7.838 142.075 7.928 142.075 8.036L142.039 8.198L139.465 16.55C139.417 16.694 139.345 16.808 139.249 16.892C139.165 16.964 139.045 17 138.889 17H137.719C137.407 17 137.209 16.85 137.125 16.55L135.253 10.862L133.381 16.55C133.285 16.85 133.081 17 132.769 17H131.617ZM147.144 17.18C146.244 17.18 145.488 17.048 144.876 16.784C144.264 16.508 143.808 16.19 143.508 15.83C143.22 15.458 143.076 15.14 143.076 14.876C143.076 14.756 143.118 14.66 143.202 14.588C143.286 14.516 143.382 14.48 143.49 14.48H144.912C145.02 14.48 145.11 14.522 145.182 14.606C145.23 14.642 145.356 14.75 145.56 14.93C145.764 15.122 146.004 15.272 146.28 15.38C146.556 15.488 146.862 15.542 147.198 15.542C147.678 15.542 148.074 15.446 148.386 15.254C148.698 15.062 148.854 14.798 148.854 14.462C148.854 14.21 148.782 14.006 148.638 13.85C148.506 13.694 148.26 13.556 147.9 13.436C147.54 13.304 147.006 13.166 146.298 13.022C145.278 12.806 144.522 12.476 144.03 12.032C143.55 11.588 143.31 11 143.31 10.268C143.31 9.788 143.454 9.338 143.742 8.918C144.03 8.486 144.456 8.138 145.02 7.874C145.596 7.598 146.28 7.46 147.072 7.46C147.876 7.46 148.572 7.592 149.16 7.856C149.748 8.108 150.192 8.414 150.492 8.774C150.804 9.122 150.96 9.434 150.96 9.71C150.96 9.818 150.918 9.914 150.834 9.998C150.762 10.07 150.672 10.106 150.564 10.106H149.232C149.136 10.106 149.034 10.064 148.926 9.98C148.842 9.92 148.71 9.806 148.53 9.638C148.35 9.47 148.14 9.338 147.9 9.242C147.66 9.146 147.378 9.098 147.054 9.098C146.61 9.098 146.262 9.194 146.01 9.386C145.77 9.578 145.65 9.83 145.65 10.142C145.65 10.37 145.71 10.556 145.83 10.7C145.95 10.844 146.184 10.982 146.532 11.114C146.88 11.246 147.402 11.378 148.098 11.51C149.25 11.738 150.072 12.092 150.564 12.572C151.068 13.052 151.32 13.64 151.32 14.336C151.32 15.176 150.954 15.86 150.222 16.388C149.49 16.916 148.464 17.18 147.144 17.18Z" fill="#FCFCFC"/>
<path d="M183.601 11.101C183.933 10.7691 183.933 10.2309 183.601 9.89896L178.192 4.48959C177.86 4.15765 177.322 4.15765 176.99 4.48959C176.658 4.82154 176.658 5.35973 176.99 5.69168L181.798 10.5L176.99 15.3083C176.658 15.6403 176.658 16.1785 176.99 16.5104C177.322 16.8424 177.86 16.8424 178.192 16.5104L183.601 11.101ZM162 11.35L183 11.35L183 9.65L162 9.65L162 11.35Z" fill="#FCFCFC"/>
</svg>
