<svg width="286" height="61" viewBox="0 0 286 61" fill="none" xmlns="http://www.w3.org/2000/svg">
<path d="M77.046 37C76.926 37 76.824 36.958 76.74 36.874C76.656 36.79 76.614 36.688 76.614 36.568V24.832C76.614 24.7 76.656 24.598 76.74 24.526C76.824 24.442 76.926 24.4 77.046 24.4H78.72C78.852 24.4 78.954 24.442 79.026 24.526C79.11 24.598 79.152 24.7 79.152 24.832V34.858H84.858C84.99 34.858 85.098 34.9 85.182 34.984C85.266 35.068 85.308 35.176 85.308 35.308V36.568C85.308 36.7 85.266 36.808 85.182 36.892C85.098 36.964 84.99 37 84.858 37H77.046ZM90.7307 37.18C89.3987 37.18 88.3367 36.796 87.5447 36.028C86.7647 35.248 86.3507 34.156 86.3027 32.752L86.2847 32.302L86.3027 31.852C86.3627 30.484 86.7827 29.41 87.5627 28.63C88.3547 27.85 89.4107 27.46 90.7307 27.46C92.1467 27.46 93.2387 27.892 94.0067 28.756C94.7867 29.62 95.1767 30.772 95.1767 32.212V32.59C95.1767 32.71 95.1347 32.812 95.0507 32.896C94.9667 32.98 94.8587 33.022 94.7267 33.022H88.7507V33.166C88.7747 33.826 88.9547 34.384 89.2907 34.84C89.6387 35.284 90.1127 35.506 90.7127 35.506C91.4207 35.506 91.9907 35.23 92.4227 34.678C92.5307 34.546 92.6147 34.462 92.6747 34.426C92.7467 34.39 92.8487 34.372 92.9807 34.372H94.5287C94.6367 34.372 94.7267 34.408 94.7987 34.48C94.8827 34.54 94.9247 34.618 94.9247 34.714C94.9247 35.002 94.7507 35.344 94.4027 35.74C94.0667 36.124 93.5807 36.46 92.9447 36.748C92.3087 37.036 91.5707 37.18 90.7307 37.18ZM92.7287 31.51V31.456C92.7287 30.748 92.5487 30.178 92.1887 29.746C91.8407 29.314 91.3547 29.098 90.7307 29.098C90.1067 29.098 89.6207 29.314 89.2727 29.746C88.9247 30.178 88.7507 30.748 88.7507 31.456V31.51H92.7287ZM99.8054 37.18C99.1934 37.18 98.6294 37.06 98.1134 36.82C97.6094 36.568 97.2074 36.232 96.9074 35.812C96.6194 35.392 96.4754 34.93 96.4754 34.426C96.4754 33.61 96.8054 32.95 97.4654 32.446C98.1254 31.942 99.0314 31.6 100.183 31.42L102.649 31.06V30.682C102.649 30.154 102.517 29.758 102.253 29.494C101.989 29.23 101.563 29.098 100.975 29.098C100.579 29.098 100.255 29.176 100.003 29.332C99.7634 29.476 99.5714 29.62 99.4274 29.764C99.2834 29.92 99.1874 30.022 99.1394 30.07C99.0914 30.214 99.0014 30.286 98.8694 30.286H97.4834C97.3754 30.286 97.2794 30.25 97.1954 30.178C97.1234 30.106 97.0874 30.01 97.0874 29.89C97.0994 29.59 97.2434 29.248 97.5194 28.864C97.8074 28.48 98.2454 28.15 98.8334 27.874C99.4214 27.598 100.141 27.46 100.993 27.46C102.409 27.46 103.441 27.778 104.089 28.414C104.737 29.05 105.061 29.884 105.061 30.916V36.568C105.061 36.688 105.019 36.79 104.935 36.874C104.863 36.958 104.761 37 104.629 37H103.171C103.051 37 102.949 36.958 102.865 36.874C102.781 36.79 102.739 36.688 102.739 36.568V35.866C102.475 36.25 102.097 36.568 101.605 36.82C101.125 37.06 100.525 37.18 99.8054 37.18ZM100.417 35.47C101.077 35.47 101.617 35.254 102.037 34.822C102.457 34.39 102.667 33.76 102.667 32.932V32.554L100.867 32.842C100.171 32.95 99.6434 33.124 99.2834 33.364C98.9354 33.604 98.7614 33.898 98.7614 34.246C98.7614 34.63 98.9234 34.93 99.2474 35.146C99.5714 35.362 99.9614 35.47 100.417 35.47ZM110.472 37C110.292 37 110.154 36.964 110.058 36.892C109.962 36.808 109.884 36.694 109.824 36.55L106.458 28.198L106.422 28.036C106.422 27.928 106.458 27.838 106.53 27.766C106.614 27.682 106.71 27.64 106.818 27.64H108.276C108.504 27.64 108.66 27.754 108.744 27.982L111.138 34.3L113.532 27.982C113.568 27.898 113.622 27.82 113.694 27.748C113.778 27.676 113.88 27.64 114 27.64H115.476C115.572 27.64 115.656 27.682 115.728 27.766C115.812 27.838 115.854 27.928 115.854 28.036C115.854 28.108 115.848 28.162 115.836 28.198L112.452 36.55C112.392 36.694 112.314 36.808 112.218 36.892C112.122 36.964 111.984 37 111.804 37H110.472ZM121.194 37.18C119.862 37.18 118.8 36.796 118.008 36.028C117.228 35.248 116.814 34.156 116.766 32.752L116.748 32.302L116.766 31.852C116.826 30.484 117.246 29.41 118.026 28.63C118.818 27.85 119.874 27.46 121.194 27.46C122.61 27.46 123.702 27.892 124.47 28.756C125.25 29.62 125.64 30.772 125.64 32.212V32.59C125.64 32.71 125.598 32.812 125.514 32.896C125.43 32.98 125.322 33.022 125.19 33.022H119.214V33.166C119.238 33.826 119.418 34.384 119.754 34.84C120.102 35.284 120.576 35.506 121.176 35.506C121.884 35.506 122.454 35.23 122.886 34.678C122.994 34.546 123.078 34.462 123.138 34.426C123.21 34.39 123.312 34.372 123.444 34.372H124.992C125.1 34.372 125.19 34.408 125.262 34.48C125.346 34.54 125.388 34.618 125.388 34.714C125.388 35.002 125.214 35.344 124.866 35.74C124.53 36.124 124.044 36.46 123.408 36.748C122.772 37.036 122.034 37.18 121.194 37.18ZM123.192 31.51V31.456C123.192 30.748 123.012 30.178 122.652 29.746C122.304 29.314 121.818 29.098 121.194 29.098C120.57 29.098 120.084 29.314 119.736 29.746C119.388 30.178 119.214 30.748 119.214 31.456V31.51H123.192ZM132.787 37C132.667 37 132.565 36.958 132.481 36.874C132.397 36.79 132.355 36.688 132.355 36.568V29.548H130.897C130.777 29.548 130.675 29.506 130.591 29.422C130.507 29.326 130.465 29.218 130.465 29.098V28.072C130.465 27.952 130.507 27.85 130.591 27.766C130.675 27.682 130.777 27.64 130.897 27.64H132.355V26.902C132.355 24.754 133.531 23.68 135.883 23.68H137.107C137.239 23.68 137.341 23.722 137.413 23.806C137.497 23.878 137.539 23.98 137.539 24.112V25.138C137.539 25.27 137.497 25.378 137.413 25.462C137.329 25.546 137.227 25.588 137.107 25.588H135.955C135.487 25.588 135.157 25.702 134.965 25.93C134.785 26.158 134.695 26.512 134.695 26.992V27.64H136.927C137.059 27.64 137.161 27.682 137.233 27.766C137.317 27.838 137.359 27.94 137.359 28.072V29.098C137.359 29.23 137.317 29.338 137.233 29.422C137.149 29.506 137.047 29.548 136.927 29.548H134.695V36.568C134.695 36.688 134.653 36.79 134.569 36.874C134.485 36.958 134.383 37 134.263 37H132.787ZM142.692 37.18C141.36 37.18 140.298 36.796 139.506 36.028C138.726 35.248 138.312 34.156 138.264 32.752L138.246 32.302L138.264 31.852C138.324 30.484 138.744 29.41 139.524 28.63C140.316 27.85 141.372 27.46 142.692 27.46C144.108 27.46 145.2 27.892 145.968 28.756C146.748 29.62 147.138 30.772 147.138 32.212V32.59C147.138 32.71 147.096 32.812 147.012 32.896C146.928 32.98 146.82 33.022 146.688 33.022H140.712V33.166C140.736 33.826 140.916 34.384 141.252 34.84C141.6 35.284 142.074 35.506 142.674 35.506C143.382 35.506 143.952 35.23 144.384 34.678C144.492 34.546 144.576 34.462 144.636 34.426C144.708 34.39 144.81 34.372 144.942 34.372H146.49C146.598 34.372 146.688 34.408 146.76 34.48C146.844 34.54 146.886 34.618 146.886 34.714C146.886 35.002 146.712 35.344 146.364 35.74C146.028 36.124 145.542 36.46 144.906 36.748C144.27 37.036 143.532 37.18 142.692 37.18ZM144.69 31.51V31.456C144.69 30.748 144.51 30.178 144.15 29.746C143.802 29.314 143.316 29.098 142.692 29.098C142.068 29.098 141.582 29.314 141.234 29.746C140.886 30.178 140.712 30.748 140.712 31.456V31.51H144.69ZM153.08 37.18C151.748 37.18 150.686 36.796 149.894 36.028C149.114 35.248 148.7 34.156 148.652 32.752L148.634 32.302L148.652 31.852C148.712 30.484 149.132 29.41 149.912 28.63C150.704 27.85 151.76 27.46 153.08 27.46C154.496 27.46 155.588 27.892 156.356 28.756C157.136 29.62 157.526 30.772 157.526 32.212V32.59C157.526 32.71 157.484 32.812 157.4 32.896C157.316 32.98 157.208 33.022 157.076 33.022H151.1V33.166C151.124 33.826 151.304 34.384 151.64 34.84C151.988 35.284 152.462 35.506 153.062 35.506C153.77 35.506 154.34 35.23 154.772 34.678C154.88 34.546 154.964 34.462 155.024 34.426C155.096 34.39 155.198 34.372 155.33 34.372H156.878C156.986 34.372 157.076 34.408 157.148 34.48C157.232 34.54 157.274 34.618 157.274 34.714C157.274 35.002 157.1 35.344 156.752 35.74C156.416 36.124 155.93 36.46 155.294 36.748C154.658 37.036 153.92 37.18 153.08 37.18ZM155.078 31.51V31.456C155.078 30.748 154.898 30.178 154.538 29.746C154.19 29.314 153.704 29.098 153.08 29.098C152.456 29.098 151.97 29.314 151.622 29.746C151.274 30.178 151.1 30.748 151.1 31.456V31.51H155.078ZM162.911 37.18C161.699 37.18 160.769 36.79 160.121 36.01C159.473 35.23 159.125 34.192 159.077 32.896L159.059 32.302L159.077 31.726C159.113 30.466 159.455 29.44 160.103 28.648C160.763 27.856 161.699 27.46 162.911 27.46C164.075 27.46 164.999 27.856 165.683 28.648V24.652C165.683 24.52 165.725 24.418 165.809 24.346C165.893 24.262 165.995 24.22 166.115 24.22H167.645C167.777 24.22 167.879 24.262 167.951 24.346C168.035 24.418 168.077 24.52 168.077 24.652V36.568C168.077 36.688 168.035 36.79 167.951 36.874C167.879 36.958 167.777 37 167.645 37H166.223C166.103 37 166.001 36.958 165.917 36.874C165.833 36.79 165.791 36.688 165.791 36.568V35.902C165.107 36.754 164.147 37.18 162.911 37.18ZM163.577 35.254C164.273 35.254 164.789 35.032 165.125 34.588C165.461 34.144 165.647 33.598 165.683 32.95C165.695 32.806 165.701 32.572 165.701 32.248C165.701 31.936 165.695 31.708 165.683 31.564C165.659 30.964 165.467 30.454 165.107 30.034C164.759 29.602 164.249 29.386 163.577 29.386C162.281 29.386 161.591 30.184 161.507 31.78L161.489 32.32L161.507 32.86C161.591 34.456 162.281 35.254 163.577 35.254ZM175.66 37.18C174.424 37.18 173.464 36.754 172.78 35.902V36.568C172.78 36.688 172.738 36.79 172.654 36.874C172.582 36.958 172.48 37 172.348 37H170.926C170.806 37 170.704 36.958 170.62 36.874C170.536 36.79 170.494 36.688 170.494 36.568V24.652C170.494 24.52 170.536 24.418 170.62 24.346C170.704 24.262 170.806 24.22 170.926 24.22H172.456C172.588 24.22 172.69 24.262 172.762 24.346C172.846 24.418 172.888 24.52 172.888 24.652V28.648C173.572 27.856 174.496 27.46 175.66 27.46C176.872 27.46 177.802 27.856 178.45 28.648C179.098 29.44 179.446 30.466 179.494 31.726C179.506 31.87 179.512 32.062 179.512 32.302C179.512 32.554 179.506 32.752 179.494 32.896C179.446 34.192 179.098 35.23 178.45 36.01C177.802 36.79 176.872 37.18 175.66 37.18ZM174.994 35.254C176.29 35.254 176.98 34.456 177.064 32.86C177.076 32.74 177.082 32.56 177.082 32.32C177.082 32.08 177.076 31.9 177.064 31.78C176.98 30.184 176.29 29.386 174.994 29.386C174.322 29.386 173.806 29.602 173.446 30.034C173.098 30.454 172.912 30.964 172.888 31.564L172.87 32.248L172.888 32.95C172.924 33.598 173.11 34.144 173.446 34.588C173.782 35.032 174.298 35.254 174.994 35.254ZM184.233 37.18C183.621 37.18 183.057 37.06 182.541 36.82C182.037 36.568 181.635 36.232 181.335 35.812C181.047 35.392 180.903 34.93 180.903 34.426C180.903 33.61 181.233 32.95 181.893 32.446C182.553 31.942 183.459 31.6 184.611 31.42L187.077 31.06V30.682C187.077 30.154 186.945 29.758 186.681 29.494C186.417 29.23 185.991 29.098 185.403 29.098C185.007 29.098 184.683 29.176 184.431 29.332C184.191 29.476 183.999 29.62 183.855 29.764C183.711 29.92 183.615 30.022 183.567 30.07C183.519 30.214 183.429 30.286 183.297 30.286H181.911C181.803 30.286 181.707 30.25 181.623 30.178C181.551 30.106 181.515 30.01 181.515 29.89C181.527 29.59 181.671 29.248 181.947 28.864C182.235 28.48 182.673 28.15 183.261 27.874C183.849 27.598 184.569 27.46 185.421 27.46C186.837 27.46 187.869 27.778 188.517 28.414C189.165 29.05 189.489 29.884 189.489 30.916V36.568C189.489 36.688 189.447 36.79 189.363 36.874C189.291 36.958 189.189 37 189.057 37H187.599C187.479 37 187.377 36.958 187.293 36.874C187.209 36.79 187.167 36.688 187.167 36.568V35.866C186.903 36.25 186.525 36.568 186.033 36.82C185.553 37.06 184.953 37.18 184.233 37.18ZM184.845 35.47C185.505 35.47 186.045 35.254 186.465 34.822C186.885 34.39 187.095 33.76 187.095 32.932V32.554L185.295 32.842C184.599 32.95 184.071 33.124 183.711 33.364C183.363 33.604 183.189 33.898 183.189 34.246C183.189 34.63 183.351 34.93 183.675 35.146C183.999 35.362 184.389 35.47 184.845 35.47ZM195.848 37.18C194.528 37.18 193.472 36.814 192.68 36.082C191.9 35.35 191.486 34.336 191.438 33.04L191.42 32.32L191.438 31.6C191.486 30.304 191.9 29.29 192.68 28.558C193.472 27.826 194.528 27.46 195.848 27.46C196.784 27.46 197.576 27.628 198.224 27.964C198.884 28.3 199.37 28.714 199.682 29.206C200.006 29.686 200.18 30.142 200.204 30.574C200.216 30.694 200.174 30.796 200.078 30.88C199.994 30.964 199.892 31.006 199.772 31.006H198.188C198.068 31.006 197.972 30.982 197.9 30.934C197.84 30.874 197.78 30.778 197.72 30.646C197.54 30.178 197.3 29.842 197 29.638C196.712 29.434 196.34 29.332 195.884 29.332C195.272 29.332 194.792 29.53 194.444 29.926C194.096 30.31 193.91 30.898 193.886 31.69L193.868 32.356L193.886 32.95C193.934 34.522 194.6 35.308 195.884 35.308C196.352 35.308 196.73 35.206 197.018 35.002C197.306 34.798 197.54 34.462 197.72 33.994C197.78 33.862 197.84 33.772 197.9 33.724C197.972 33.664 198.068 33.634 198.188 33.634H199.772C199.892 33.634 199.994 33.676 200.078 33.76C200.174 33.844 200.216 33.946 200.204 34.066C200.18 34.486 200.012 34.936 199.7 35.416C199.388 35.896 198.908 36.31 198.26 36.658C197.612 37.006 196.808 37.18 195.848 37.18ZM202.532 37C202.412 37 202.31 36.958 202.226 36.874C202.142 36.79 202.1 36.688 202.1 36.568V24.652C202.1 24.52 202.142 24.418 202.226 24.346C202.31 24.262 202.412 24.22 202.532 24.22H203.99C204.122 24.22 204.224 24.262 204.296 24.346C204.38 24.418 204.422 24.52 204.422 24.652V30.808L207.446 27.946C207.482 27.922 207.542 27.874 207.626 27.802C207.698 27.742 207.77 27.7 207.842 27.676C207.914 27.652 208.004 27.64 208.112 27.64H209.786C209.906 27.64 210.002 27.676 210.074 27.748C210.146 27.82 210.182 27.916 210.182 28.036C210.182 28.144 210.122 28.252 210.002 28.36L206.294 31.834L210.452 36.298C210.572 36.418 210.632 36.52 210.632 36.604C210.632 36.724 210.59 36.82 210.506 36.892C210.434 36.964 210.344 37 210.236 37H208.526C208.358 37 208.232 36.982 208.148 36.946C208.076 36.898 207.98 36.814 207.86 36.694L204.422 33.076V36.568C204.422 36.688 204.38 36.79 204.296 36.874C204.224 36.958 204.122 37 203.99 37H202.532Z" fill="#FCFCFC"/>
<rect x="1" y="1" width="284" height="59" rx="4" stroke="#FCFCFC" stroke-width="2"/>
</svg>
