<svg width="250" height="61" viewBox="0 0 250 61" fill="none" xmlns="http://www.w3.org/2000/svg">
<rect width="250" height="61" rx="5" fill="#080029"/>
<path d="M81.3773 37.18C79.7213 37.18 78.4373 36.754 77.5253 35.902C76.6253 35.05 76.1453 33.85 76.0853 32.302C76.0733 31.978 76.0673 31.45 76.0673 30.718C76.0673 29.974 76.0733 29.434 76.0853 29.098C76.1453 27.562 76.6313 26.368 77.5433 25.516C78.4673 24.652 79.7453 24.22 81.3773 24.22C82.4453 24.22 83.3753 24.406 84.1673 24.778C84.9593 25.138 85.5713 25.636 86.0033 26.272C86.4353 26.896 86.6633 27.604 86.6873 28.396V28.432C86.6873 28.528 86.6453 28.612 86.5613 28.684C86.4893 28.744 86.4053 28.774 86.3093 28.774H84.5993C84.4553 28.774 84.3473 28.744 84.2753 28.684C84.2033 28.624 84.1433 28.51 84.0953 28.342C83.9033 27.586 83.5853 27.058 83.1413 26.758C82.6973 26.446 82.1033 26.29 81.3593 26.29C79.6313 26.29 78.7313 27.256 78.6593 29.188C78.6473 29.512 78.6413 30.01 78.6413 30.682C78.6413 31.354 78.6473 31.864 78.6593 32.212C78.7313 34.144 79.6313 35.11 81.3593 35.11C82.1033 35.11 82.6973 34.954 83.1413 34.642C83.5973 34.33 83.9153 33.802 84.0953 33.058C84.1313 32.89 84.1853 32.776 84.2573 32.716C84.3413 32.656 84.4553 32.626 84.5993 32.626H86.3093C86.4173 32.626 86.5073 32.662 86.5793 32.734C86.6633 32.806 86.6993 32.896 86.6873 33.004C86.6633 33.796 86.4353 34.51 86.0033 35.146C85.5713 35.77 84.9593 36.268 84.1673 36.64C83.3753 37 82.4453 37.18 81.3773 37.18ZM89.056 37C88.936 37 88.834 36.958 88.75 36.874C88.666 36.79 88.624 36.688 88.624 36.568V24.652C88.624 24.52 88.666 24.418 88.75 24.346C88.834 24.262 88.936 24.22 89.056 24.22H90.658C90.79 24.22 90.892 24.262 90.964 24.346C91.048 24.418 91.09 24.52 91.09 24.652V28.756C91.81 27.892 92.782 27.46 94.006 27.46C95.11 27.46 95.992 27.826 96.652 28.558C97.312 29.278 97.642 30.262 97.642 31.51V36.568C97.642 36.688 97.6 36.79 97.516 36.874C97.444 36.958 97.342 37 97.21 37H95.59C95.47 37 95.368 36.958 95.284 36.874C95.2 36.79 95.158 36.688 95.158 36.568V31.618C95.158 30.91 94.984 30.364 94.636 29.98C94.3 29.584 93.808 29.386 93.16 29.386C92.524 29.386 92.02 29.584 91.648 29.98C91.276 30.376 91.09 30.922 91.09 31.618V36.568C91.09 36.688 91.048 36.79 90.964 36.874C90.892 36.958 90.79 37 90.658 37H89.056ZM104.066 37.18C102.662 37.18 101.576 36.82 100.808 36.1C100.04 35.368 99.6263 34.372 99.5663 33.112L99.5483 32.32L99.5663 31.528C99.6263 30.28 100.046 29.29 100.826 28.558C101.606 27.826 102.686 27.46 104.066 27.46C105.446 27.46 106.526 27.826 107.306 28.558C108.086 29.29 108.506 30.28 108.566 31.528C108.578 31.672 108.584 31.936 108.584 32.32C108.584 32.704 108.578 32.968 108.566 33.112C108.506 34.372 108.092 35.368 107.324 36.1C106.556 36.82 105.47 37.18 104.066 37.18ZM104.066 35.398C104.702 35.398 105.194 35.2 105.542 34.804C105.89 34.396 106.082 33.802 106.118 33.022C106.13 32.902 106.136 32.668 106.136 32.32C106.136 31.972 106.13 31.738 106.118 31.618C106.082 30.838 105.89 30.25 105.542 29.854C105.194 29.446 104.702 29.242 104.066 29.242C103.43 29.242 102.938 29.446 102.59 29.854C102.242 30.25 102.05 30.838 102.014 31.618L101.996 32.32L102.014 33.022C102.05 33.802 102.242 34.396 102.59 34.804C102.938 35.2 103.43 35.398 104.066 35.398ZM114.719 37.18C113.315 37.18 112.229 36.82 111.461 36.1C110.693 35.368 110.279 34.372 110.219 33.112L110.201 32.32L110.219 31.528C110.279 30.28 110.699 29.29 111.479 28.558C112.259 27.826 113.339 27.46 114.719 27.46C116.099 27.46 117.179 27.826 117.959 28.558C118.739 29.29 119.159 30.28 119.219 31.528C119.231 31.672 119.237 31.936 119.237 32.32C119.237 32.704 119.231 32.968 119.219 33.112C119.159 34.372 118.745 35.368 117.977 36.1C117.209 36.82 116.123 37.18 114.719 37.18ZM114.719 35.398C115.355 35.398 115.847 35.2 116.195 34.804C116.543 34.396 116.735 33.802 116.771 33.022C116.783 32.902 116.789 32.668 116.789 32.32C116.789 31.972 116.783 31.738 116.771 31.618C116.735 30.838 116.543 30.25 116.195 29.854C115.847 29.446 115.355 29.242 114.719 29.242C114.083 29.242 113.591 29.446 113.243 29.854C112.895 30.25 112.703 30.838 112.667 31.618L112.649 32.32L112.667 33.022C112.703 33.802 112.895 34.396 113.243 34.804C113.591 35.2 114.083 35.398 114.719 35.398ZM124.777 37.18C123.877 37.18 123.121 37.048 122.509 36.784C121.897 36.508 121.441 36.19 121.141 35.83C120.853 35.458 120.709 35.14 120.709 34.876C120.709 34.756 120.751 34.66 120.835 34.588C120.919 34.516 121.015 34.48 121.123 34.48H122.545C122.653 34.48 122.743 34.522 122.815 34.606C122.863 34.642 122.989 34.75 123.193 34.93C123.397 35.122 123.637 35.272 123.913 35.38C124.189 35.488 124.495 35.542 124.831 35.542C125.311 35.542 125.707 35.446 126.019 35.254C126.331 35.062 126.487 34.798 126.487 34.462C126.487 34.21 126.415 34.006 126.271 33.85C126.139 33.694 125.893 33.556 125.533 33.436C125.173 33.304 124.639 33.166 123.931 33.022C122.911 32.806 122.155 32.476 121.663 32.032C121.183 31.588 120.943 31 120.943 30.268C120.943 29.788 121.087 29.338 121.375 28.918C121.663 28.486 122.089 28.138 122.653 27.874C123.229 27.598 123.913 27.46 124.705 27.46C125.509 27.46 126.205 27.592 126.793 27.856C127.381 28.108 127.825 28.414 128.125 28.774C128.437 29.122 128.593 29.434 128.593 29.71C128.593 29.818 128.551 29.914 128.467 29.998C128.395 30.07 128.305 30.106 128.197 30.106H126.865C126.769 30.106 126.667 30.064 126.559 29.98C126.475 29.92 126.343 29.806 126.163 29.638C125.983 29.47 125.773 29.338 125.533 29.242C125.293 29.146 125.011 29.098 124.687 29.098C124.243 29.098 123.895 29.194 123.643 29.386C123.403 29.578 123.283 29.83 123.283 30.142C123.283 30.37 123.343 30.556 123.463 30.7C123.583 30.844 123.817 30.982 124.165 31.114C124.513 31.246 125.035 31.378 125.731 31.51C126.883 31.738 127.705 32.092 128.197 32.572C128.701 33.052 128.953 33.64 128.953 34.336C128.953 35.176 128.587 35.86 127.855 36.388C127.123 36.916 126.097 37.18 124.777 37.18ZM134.843 37.18C133.511 37.18 132.449 36.796 131.657 36.028C130.877 35.248 130.463 34.156 130.415 32.752L130.397 32.302L130.415 31.852C130.475 30.484 130.895 29.41 131.675 28.63C132.467 27.85 133.523 27.46 134.843 27.46C136.259 27.46 137.351 27.892 138.119 28.756C138.899 29.62 139.289 30.772 139.289 32.212V32.59C139.289 32.71 139.247 32.812 139.163 32.896C139.079 32.98 138.971 33.022 138.839 33.022H132.863V33.166C132.887 33.826 133.067 34.384 133.403 34.84C133.751 35.284 134.225 35.506 134.825 35.506C135.533 35.506 136.103 35.23 136.535 34.678C136.643 34.546 136.727 34.462 136.787 34.426C136.859 34.39 136.961 34.372 137.093 34.372H138.641C138.749 34.372 138.839 34.408 138.911 34.48C138.995 34.54 139.037 34.618 139.037 34.714C139.037 35.002 138.863 35.344 138.515 35.74C138.179 36.124 137.693 36.46 137.057 36.748C136.421 37.036 135.683 37.18 134.843 37.18ZM136.841 31.51V31.456C136.841 30.748 136.661 30.178 136.301 29.746C135.953 29.314 135.467 29.098 134.843 29.098C134.219 29.098 133.733 29.314 133.385 29.746C133.037 30.178 132.863 30.748 132.863 31.456V31.51H136.841ZM145.277 37C145.157 37 145.055 36.958 144.971 36.874C144.887 36.79 144.845 36.688 144.845 36.568V35.542C144.845 35.374 144.929 35.182 145.097 34.966L149.705 29.512H145.421C145.301 29.512 145.199 29.47 145.115 29.386C145.031 29.302 144.989 29.2 144.989 29.08V28.072C144.989 27.952 145.031 27.85 145.115 27.766C145.199 27.682 145.301 27.64 145.421 27.64H152.243C152.375 27.64 152.477 27.682 152.549 27.766C152.633 27.838 152.675 27.94 152.675 28.072V29.17C152.675 29.338 152.591 29.518 152.423 29.71L147.923 35.128H152.621C152.753 35.128 152.855 35.17 152.927 35.254C153.011 35.326 153.053 35.428 153.053 35.56V36.568C153.053 36.688 153.011 36.79 152.927 36.874C152.855 36.958 152.753 37 152.621 37H145.277ZM158.91 37.18C157.506 37.18 156.42 36.82 155.652 36.1C154.884 35.368 154.47 34.372 154.41 33.112L154.392 32.32L154.41 31.528C154.47 30.28 154.89 29.29 155.67 28.558C156.45 27.826 157.53 27.46 158.91 27.46C160.29 27.46 161.37 27.826 162.15 28.558C162.93 29.29 163.35 30.28 163.41 31.528C163.422 31.672 163.428 31.936 163.428 32.32C163.428 32.704 163.422 32.968 163.41 33.112C163.35 34.372 162.936 35.368 162.168 36.1C161.4 36.82 160.314 37.18 158.91 37.18ZM158.91 35.398C159.546 35.398 160.038 35.2 160.386 34.804C160.734 34.396 160.926 33.802 160.962 33.022C160.974 32.902 160.98 32.668 160.98 32.32C160.98 31.972 160.974 31.738 160.962 31.618C160.926 30.838 160.734 30.25 160.386 29.854C160.038 29.446 159.546 29.242 158.91 29.242C158.274 29.242 157.782 29.446 157.434 29.854C157.086 30.25 156.894 30.838 156.858 31.618L156.84 32.32L156.858 33.022C156.894 33.802 157.086 34.396 157.434 34.804C157.782 35.2 158.274 35.398 158.91 35.398ZM169.562 37.18C168.158 37.18 167.072 36.82 166.304 36.1C165.536 35.368 165.122 34.372 165.062 33.112L165.044 32.32L165.062 31.528C165.122 30.28 165.542 29.29 166.322 28.558C167.102 27.826 168.182 27.46 169.562 27.46C170.942 27.46 172.022 27.826 172.802 28.558C173.582 29.29 174.002 30.28 174.062 31.528C174.074 31.672 174.08 31.936 174.08 32.32C174.08 32.704 174.074 32.968 174.062 33.112C174.002 34.372 173.588 35.368 172.82 36.1C172.052 36.82 170.966 37.18 169.562 37.18ZM169.562 35.398C170.198 35.398 170.69 35.2 171.038 34.804C171.386 34.396 171.578 33.802 171.614 33.022C171.626 32.902 171.632 32.668 171.632 32.32C171.632 31.972 171.626 31.738 171.614 31.618C171.578 30.838 171.386 30.25 171.038 29.854C170.69 29.446 170.198 29.242 169.562 29.242C168.926 29.242 168.434 29.446 168.086 29.854C167.738 30.25 167.546 30.838 167.51 31.618L167.492 32.32L167.51 33.022C167.546 33.802 167.738 34.396 168.086 34.804C168.434 35.2 168.926 35.398 169.562 35.398Z" fill="#FCFCFC"/>
</svg>
