<svg width="339" height="61" viewBox="0 0 339 61" fill="none" xmlns="http://www.w3.org/2000/svg">
<path d="M77.003 37C76.883 37 76.781 36.958 76.697 36.874C76.613 36.79 76.571 36.688 76.571 36.568V24.85C76.571 24.718 76.607 24.61 76.679 24.526C76.763 24.442 76.871 24.4 77.003 24.4H81.395C84.923 24.4 86.723 26.032 86.795 29.296C86.819 29.992 86.831 30.46 86.831 30.7C86.831 30.928 86.819 31.39 86.795 32.086C86.747 33.766 86.297 35.008 85.445 35.812C84.593 36.604 83.273 37 81.485 37H77.003ZM81.395 34.93C82.403 34.93 83.129 34.708 83.573 34.264C84.017 33.808 84.251 33.064 84.275 32.032C84.299 31.312 84.311 30.862 84.311 30.682C84.311 30.49 84.299 30.046 84.275 29.35C84.251 28.366 83.999 27.64 83.519 27.172C83.051 26.704 82.313 26.47 81.305 26.47H79.073V34.93H81.395ZM93.1512 37.18C91.7472 37.18 90.6612 36.82 89.8932 36.1C89.1252 35.368 88.7112 34.372 88.6512 33.112L88.6332 32.32L88.6512 31.528C88.7112 30.28 89.1312 29.29 89.9112 28.558C90.6912 27.826 91.7712 27.46 93.1512 27.46C94.5312 27.46 95.6112 27.826 96.3912 28.558C97.1712 29.29 97.5912 30.28 97.6512 31.528C97.6632 31.672 97.6692 31.936 97.6692 32.32C97.6692 32.704 97.6632 32.968 97.6512 33.112C97.5912 34.372 97.1772 35.368 96.4092 36.1C95.6412 36.82 94.5552 37.18 93.1512 37.18ZM93.1512 35.398C93.7872 35.398 94.2792 35.2 94.6272 34.804C94.9752 34.396 95.1672 33.802 95.2032 33.022C95.2152 32.902 95.2212 32.668 95.2212 32.32C95.2212 31.972 95.2152 31.738 95.2032 31.618C95.1672 30.838 94.9752 30.25 94.6272 29.854C94.2792 29.446 93.7872 29.242 93.1512 29.242C92.5152 29.242 92.0232 29.446 91.6752 29.854C91.3272 30.25 91.1352 30.838 91.0992 31.618L91.0812 32.32L91.0992 33.022C91.1352 33.802 91.3272 34.396 91.6752 34.804C92.0232 35.2 92.5152 35.398 93.1512 35.398ZM100.096 37C99.9756 37 99.8736 36.958 99.7896 36.874C99.7056 36.79 99.6636 36.688 99.6636 36.568V28.072C99.6636 27.952 99.7056 27.85 99.7896 27.766C99.8736 27.682 99.9756 27.64 100.096 27.64H101.572C101.692 27.64 101.794 27.682 101.878 27.766C101.962 27.85 102.004 27.952 102.004 28.072V28.81C102.712 27.91 103.714 27.46 105.01 27.46C106.114 27.46 106.99 27.826 107.638 28.558C108.286 29.278 108.61 30.262 108.61 31.51V36.568C108.61 36.688 108.568 36.79 108.484 36.874C108.412 36.958 108.31 37 108.178 37H106.594C106.474 37 106.372 36.958 106.288 36.874C106.204 36.79 106.162 36.688 106.162 36.568V31.618C106.162 30.91 105.988 30.364 105.64 29.98C105.304 29.584 104.812 29.386 104.164 29.386C103.528 29.386 103.024 29.584 102.652 29.98C102.292 30.376 102.112 30.922 102.112 31.618V36.568C102.112 36.688 102.07 36.79 101.986 36.874C101.914 36.958 101.812 37 101.68 37H100.096ZM113.614 37.18C113.002 37.18 112.438 37.06 111.922 36.82C111.418 36.568 111.016 36.232 110.716 35.812C110.428 35.392 110.284 34.93 110.284 34.426C110.284 33.61 110.614 32.95 111.274 32.446C111.934 31.942 112.84 31.6 113.992 31.42L116.458 31.06V30.682C116.458 30.154 116.326 29.758 116.062 29.494C115.798 29.23 115.372 29.098 114.784 29.098C114.388 29.098 114.064 29.176 113.812 29.332C113.572 29.476 113.38 29.62 113.236 29.764C113.092 29.92 112.996 30.022 112.948 30.07C112.9 30.214 112.81 30.286 112.678 30.286H111.292C111.184 30.286 111.088 30.25 111.004 30.178C110.932 30.106 110.896 30.01 110.896 29.89C110.908 29.59 111.052 29.248 111.328 28.864C111.616 28.48 112.054 28.15 112.642 27.874C113.23 27.598 113.95 27.46 114.802 27.46C116.218 27.46 117.25 27.778 117.898 28.414C118.546 29.05 118.87 29.884 118.87 30.916V36.568C118.87 36.688 118.828 36.79 118.744 36.874C118.672 36.958 118.57 37 118.438 37H116.98C116.86 37 116.758 36.958 116.674 36.874C116.59 36.79 116.548 36.688 116.548 36.568V35.866C116.284 36.25 115.906 36.568 115.414 36.82C114.934 37.06 114.334 37.18 113.614 37.18ZM114.226 35.47C114.886 35.47 115.426 35.254 115.846 34.822C116.266 34.39 116.476 33.76 116.476 32.932V32.554L114.676 32.842C113.98 32.95 113.452 33.124 113.092 33.364C112.744 33.604 112.57 33.898 112.57 34.246C112.57 34.63 112.732 34.93 113.056 35.146C113.38 35.362 113.77 35.47 114.226 35.47ZM125.321 37C124.229 37 123.407 36.718 122.855 36.154C122.315 35.578 122.045 34.738 122.045 33.634V29.548H120.623C120.503 29.548 120.401 29.506 120.317 29.422C120.233 29.326 120.191 29.218 120.191 29.098V28.072C120.191 27.952 120.233 27.85 120.317 27.766C120.401 27.682 120.503 27.64 120.623 27.64H122.045V24.652C122.045 24.52 122.087 24.418 122.171 24.346C122.255 24.262 122.357 24.22 122.477 24.22H123.935C124.067 24.22 124.169 24.262 124.241 24.346C124.325 24.418 124.367 24.52 124.367 24.652V27.64H126.617C126.749 27.64 126.851 27.682 126.923 27.766C127.007 27.838 127.049 27.94 127.049 28.072V29.098C127.049 29.23 127.007 29.338 126.923 29.422C126.839 29.506 126.737 29.548 126.617 29.548H124.367V33.454C124.367 33.97 124.457 34.36 124.637 34.624C124.817 34.888 125.117 35.02 125.537 35.02H126.779C126.899 35.02 127.001 35.062 127.085 35.146C127.169 35.23 127.211 35.332 127.211 35.452V36.568C127.211 36.688 127.169 36.79 127.085 36.874C127.013 36.958 126.911 37 126.779 37H125.321ZM132.84 37.18C131.508 37.18 130.446 36.796 129.654 36.028C128.874 35.248 128.46 34.156 128.412 32.752L128.394 32.302L128.412 31.852C128.472 30.484 128.892 29.41 129.672 28.63C130.464 27.85 131.52 27.46 132.84 27.46C134.256 27.46 135.348 27.892 136.116 28.756C136.896 29.62 137.286 30.772 137.286 32.212V32.59C137.286 32.71 137.244 32.812 137.16 32.896C137.076 32.98 136.968 33.022 136.836 33.022H130.86V33.166C130.884 33.826 131.064 34.384 131.4 34.84C131.748 35.284 132.222 35.506 132.822 35.506C133.53 35.506 134.1 35.23 134.532 34.678C134.64 34.546 134.724 34.462 134.784 34.426C134.856 34.39 134.958 34.372 135.09 34.372H136.638C136.746 34.372 136.836 34.408 136.908 34.48C136.992 34.54 137.034 34.618 137.034 34.714C137.034 35.002 136.86 35.344 136.512 35.74C136.176 36.124 135.69 36.46 135.054 36.748C134.418 37.036 133.68 37.18 132.84 37.18ZM134.838 31.51V31.456C134.838 30.748 134.658 30.178 134.298 29.746C133.95 29.314 133.464 29.098 132.84 29.098C132.216 29.098 131.73 29.314 131.382 29.746C131.034 30.178 130.86 30.748 130.86 31.456V31.51H134.838ZM144.434 37C144.314 37 144.212 36.958 144.128 36.874C144.044 36.79 144.002 36.688 144.002 36.568V29.548H142.544C142.424 29.548 142.322 29.506 142.238 29.422C142.154 29.326 142.112 29.218 142.112 29.098V28.072C142.112 27.952 142.154 27.85 142.238 27.766C142.322 27.682 142.424 27.64 142.544 27.64H144.002V26.902C144.002 24.754 145.178 23.68 147.53 23.68H148.754C148.886 23.68 148.988 23.722 149.06 23.806C149.144 23.878 149.186 23.98 149.186 24.112V25.138C149.186 25.27 149.144 25.378 149.06 25.462C148.976 25.546 148.874 25.588 148.754 25.588H147.602C147.134 25.588 146.804 25.702 146.612 25.93C146.432 26.158 146.342 26.512 146.342 26.992V27.64H148.574C148.706 27.64 148.808 27.682 148.88 27.766C148.964 27.838 149.006 27.94 149.006 28.072V29.098C149.006 29.23 148.964 29.338 148.88 29.422C148.796 29.506 148.694 29.548 148.574 29.548H146.342V36.568C146.342 36.688 146.3 36.79 146.216 36.874C146.132 36.958 146.03 37 145.91 37H144.434ZM154.446 37.18C153.042 37.18 151.956 36.82 151.188 36.1C150.42 35.368 150.006 34.372 149.946 33.112L149.928 32.32L149.946 31.528C150.006 30.28 150.426 29.29 151.206 28.558C151.986 27.826 153.066 27.46 154.446 27.46C155.826 27.46 156.906 27.826 157.686 28.558C158.466 29.29 158.886 30.28 158.946 31.528C158.958 31.672 158.964 31.936 158.964 32.32C158.964 32.704 158.958 32.968 158.946 33.112C158.886 34.372 158.472 35.368 157.704 36.1C156.936 36.82 155.85 37.18 154.446 37.18ZM154.446 35.398C155.082 35.398 155.574 35.2 155.922 34.804C156.27 34.396 156.462 33.802 156.498 33.022C156.51 32.902 156.516 32.668 156.516 32.32C156.516 31.972 156.51 31.738 156.498 31.618C156.462 30.838 156.27 30.25 155.922 29.854C155.574 29.446 155.082 29.242 154.446 29.242C153.81 29.242 153.318 29.446 152.97 29.854C152.622 30.25 152.43 30.838 152.394 31.618L152.376 32.32L152.394 33.022C152.43 33.802 152.622 34.396 152.97 34.804C153.318 35.2 153.81 35.398 154.446 35.398ZM161.391 37C161.271 37 161.169 36.958 161.085 36.874C161.001 36.79 160.959 36.688 160.959 36.568V28.09C160.959 27.97 161.001 27.868 161.085 27.784C161.169 27.688 161.271 27.64 161.391 27.64H162.849C162.981 27.64 163.089 27.682 163.173 27.766C163.257 27.85 163.299 27.958 163.299 28.09V28.828C163.587 28.444 163.947 28.15 164.379 27.946C164.823 27.742 165.327 27.64 165.891 27.64H166.629C166.761 27.64 166.863 27.682 166.935 27.766C167.019 27.838 167.061 27.94 167.061 28.072V29.368C167.061 29.488 167.019 29.59 166.935 29.674C166.863 29.758 166.761 29.8 166.629 29.8H165.225C164.661 29.8 164.217 29.962 163.893 30.286C163.569 30.61 163.407 31.054 163.407 31.618V36.568C163.407 36.688 163.365 36.79 163.281 36.874C163.197 36.958 163.089 37 162.957 37H161.391ZM175.028 37C174.848 37 174.71 36.964 174.614 36.892C174.518 36.808 174.44 36.694 174.38 36.55L171.014 28.198L170.978 28.036C170.978 27.928 171.014 27.838 171.086 27.766C171.17 27.682 171.266 27.64 171.374 27.64H172.832C173.06 27.64 173.216 27.754 173.3 27.982L175.694 34.3L178.088 27.982C178.124 27.898 178.178 27.82 178.25 27.748C178.334 27.676 178.436 27.64 178.556 27.64H180.032C180.128 27.64 180.212 27.682 180.284 27.766C180.368 27.838 180.41 27.928 180.41 28.036C180.41 28.108 180.404 28.162 180.392 28.198L177.008 36.55C176.948 36.694 176.87 36.808 176.774 36.892C176.678 36.964 176.54 37 176.36 37H175.028ZM185.858 37.18C184.454 37.18 183.368 36.82 182.6 36.1C181.832 35.368 181.418 34.372 181.358 33.112L181.34 32.32L181.358 31.528C181.418 30.28 181.838 29.29 182.618 28.558C183.398 27.826 184.478 27.46 185.858 27.46C187.238 27.46 188.318 27.826 189.098 28.558C189.878 29.29 190.298 30.28 190.358 31.528C190.37 31.672 190.376 31.936 190.376 32.32C190.376 32.704 190.37 32.968 190.358 33.112C190.298 34.372 189.884 35.368 189.116 36.1C188.348 36.82 187.262 37.18 185.858 37.18ZM185.858 35.398C186.494 35.398 186.986 35.2 187.334 34.804C187.682 34.396 187.874 33.802 187.91 33.022C187.922 32.902 187.928 32.668 187.928 32.32C187.928 31.972 187.922 31.738 187.91 31.618C187.874 30.838 187.682 30.25 187.334 29.854C186.986 29.446 186.494 29.242 185.858 29.242C185.222 29.242 184.73 29.446 184.382 29.854C184.034 30.25 183.842 30.838 183.806 31.618L183.788 32.32L183.806 33.022C183.842 33.802 184.034 34.396 184.382 34.804C184.73 35.2 185.222 35.398 185.858 35.398ZM192.821 37C192.701 37 192.599 36.958 192.515 36.874C192.431 36.79 192.389 36.688 192.389 36.568V24.652C192.389 24.52 192.431 24.418 192.515 24.346C192.599 24.262 192.701 24.22 192.821 24.22H194.315C194.447 24.22 194.549 24.262 194.621 24.346C194.705 24.418 194.747 24.52 194.747 24.652V36.568C194.747 36.688 194.705 36.79 194.621 36.874C194.549 36.958 194.447 37 194.315 37H192.821ZM200.608 37.18C199.504 37.18 198.634 36.82 197.998 36.1C197.362 35.368 197.044 34.378 197.044 33.13V28.072C197.044 27.952 197.086 27.85 197.17 27.766C197.254 27.682 197.356 27.64 197.476 27.64H199.06C199.192 27.64 199.294 27.682 199.366 27.766C199.45 27.838 199.492 27.94 199.492 28.072V33.022C199.492 34.51 200.146 35.254 201.454 35.254C202.078 35.254 202.57 35.056 202.93 34.66C203.302 34.264 203.488 33.718 203.488 33.022V28.072C203.488 27.952 203.53 27.85 203.614 27.766C203.698 27.682 203.8 27.64 203.92 27.64H205.504C205.636 27.64 205.738 27.682 205.81 27.766C205.894 27.838 205.936 27.94 205.936 28.072V36.568C205.936 36.688 205.894 36.79 205.81 36.874C205.738 36.958 205.636 37 205.504 37H204.046C203.926 37 203.824 36.958 203.74 36.874C203.656 36.79 203.614 36.688 203.614 36.568V35.83C202.942 36.73 201.94 37.18 200.608 37.18ZM208.746 37C208.626 37 208.524 36.958 208.44 36.874C208.356 36.79 208.314 36.688 208.314 36.568V28.072C208.314 27.952 208.356 27.85 208.44 27.766C208.524 27.682 208.626 27.64 208.746 27.64H210.222C210.342 27.64 210.444 27.682 210.528 27.766C210.612 27.85 210.654 27.952 210.654 28.072V28.81C211.362 27.91 212.364 27.46 213.66 27.46C214.764 27.46 215.64 27.826 216.288 28.558C216.936 29.278 217.26 30.262 217.26 31.51V36.568C217.26 36.688 217.218 36.79 217.134 36.874C217.062 36.958 216.96 37 216.828 37H215.244C215.124 37 215.022 36.958 214.938 36.874C214.854 36.79 214.812 36.688 214.812 36.568V31.618C214.812 30.91 214.638 30.364 214.29 29.98C213.954 29.584 213.462 29.386 212.814 29.386C212.178 29.386 211.674 29.584 211.302 29.98C210.942 30.376 210.762 30.922 210.762 31.618V36.568C210.762 36.688 210.72 36.79 210.636 36.874C210.564 36.958 210.462 37 210.33 37H208.746ZM223.671 37C222.579 37 221.757 36.718 221.205 36.154C220.665 35.578 220.395 34.738 220.395 33.634V29.548H218.973C218.853 29.548 218.751 29.506 218.667 29.422C218.583 29.326 218.541 29.218 218.541 29.098V28.072C218.541 27.952 218.583 27.85 218.667 27.766C218.751 27.682 218.853 27.64 218.973 27.64H220.395V24.652C220.395 24.52 220.437 24.418 220.521 24.346C220.605 24.262 220.707 24.22 220.827 24.22H222.285C222.417 24.22 222.519 24.262 222.591 24.346C222.675 24.418 222.717 24.52 222.717 24.652V27.64H224.967C225.099 27.64 225.201 27.682 225.273 27.766C225.357 27.838 225.399 27.94 225.399 28.072V29.098C225.399 29.23 225.357 29.338 225.273 29.422C225.189 29.506 225.087 29.548 224.967 29.548H222.717V33.454C222.717 33.97 222.807 34.36 222.987 34.624C223.167 34.888 223.467 35.02 223.887 35.02H225.129C225.249 35.02 225.351 35.062 225.435 35.146C225.519 35.23 225.561 35.332 225.561 35.452V36.568C225.561 36.688 225.519 36.79 225.435 36.874C225.363 36.958 225.261 37 225.129 37H223.671ZM231.19 37.18C229.858 37.18 228.796 36.796 228.004 36.028C227.224 35.248 226.81 34.156 226.762 32.752L226.744 32.302L226.762 31.852C226.822 30.484 227.242 29.41 228.022 28.63C228.814 27.85 229.87 27.46 231.19 27.46C232.606 27.46 233.698 27.892 234.466 28.756C235.246 29.62 235.636 30.772 235.636 32.212V32.59C235.636 32.71 235.594 32.812 235.51 32.896C235.426 32.98 235.318 33.022 235.186 33.022H229.21V33.166C229.234 33.826 229.414 34.384 229.75 34.84C230.098 35.284 230.572 35.506 231.172 35.506C231.88 35.506 232.45 35.23 232.882 34.678C232.99 34.546 233.074 34.462 233.134 34.426C233.206 34.39 233.308 34.372 233.44 34.372H234.988C235.096 34.372 235.186 34.408 235.258 34.48C235.342 34.54 235.384 34.618 235.384 34.714C235.384 35.002 235.21 35.344 234.862 35.74C234.526 36.124 234.04 36.46 233.404 36.748C232.768 37.036 232.03 37.18 231.19 37.18ZM233.188 31.51V31.456C233.188 30.748 233.008 30.178 232.648 29.746C232.3 29.314 231.814 29.098 231.19 29.098C230.566 29.098 230.08 29.314 229.732 29.746C229.384 30.178 229.21 30.748 229.21 31.456V31.51H233.188ZM241.578 37.18C240.246 37.18 239.184 36.796 238.392 36.028C237.612 35.248 237.198 34.156 237.15 32.752L237.132 32.302L237.15 31.852C237.21 30.484 237.63 29.41 238.41 28.63C239.202 27.85 240.258 27.46 241.578 27.46C242.994 27.46 244.086 27.892 244.854 28.756C245.634 29.62 246.024 30.772 246.024 32.212V32.59C246.024 32.71 245.982 32.812 245.898 32.896C245.814 32.98 245.706 33.022 245.574 33.022H239.598V33.166C239.622 33.826 239.802 34.384 240.138 34.84C240.486 35.284 240.96 35.506 241.56 35.506C242.268 35.506 242.838 35.23 243.27 34.678C243.378 34.546 243.462 34.462 243.522 34.426C243.594 34.39 243.696 34.372 243.828 34.372H245.376C245.484 34.372 245.574 34.408 245.646 34.48C245.73 34.54 245.772 34.618 245.772 34.714C245.772 35.002 245.598 35.344 245.25 35.74C244.914 36.124 244.428 36.46 243.792 36.748C243.156 37.036 242.418 37.18 241.578 37.18ZM243.576 31.51V31.456C243.576 30.748 243.396 30.178 243.036 29.746C242.688 29.314 242.202 29.098 241.578 29.098C240.954 29.098 240.468 29.314 240.12 29.746C239.772 30.178 239.598 30.748 239.598 31.456V31.51H243.576ZM248.367 37C248.247 37 248.145 36.958 248.061 36.874C247.977 36.79 247.935 36.688 247.935 36.568V28.09C247.935 27.97 247.977 27.868 248.061 27.784C248.145 27.688 248.247 27.64 248.367 27.64H249.825C249.957 27.64 250.065 27.682 250.149 27.766C250.233 27.85 250.275 27.958 250.275 28.09V28.828C250.563 28.444 250.923 28.15 251.355 27.946C251.799 27.742 252.303 27.64 252.867 27.64H253.605C253.737 27.64 253.839 27.682 253.911 27.766C253.995 27.838 254.037 27.94 254.037 28.072V29.368C254.037 29.488 253.995 29.59 253.911 29.674C253.839 29.758 253.737 29.8 253.605 29.8H252.201C251.637 29.8 251.193 29.962 250.869 30.286C250.545 30.61 250.383 31.054 250.383 31.618V36.568C250.383 36.688 250.341 36.79 250.257 36.874C250.173 36.958 250.065 37 249.933 37H248.367ZM258.987 37.18C258.087 37.18 257.331 37.048 256.719 36.784C256.107 36.508 255.651 36.19 255.351 35.83C255.063 35.458 254.919 35.14 254.919 34.876C254.919 34.756 254.961 34.66 255.045 34.588C255.129 34.516 255.225 34.48 255.333 34.48H256.755C256.863 34.48 256.953 34.522 257.025 34.606C257.073 34.642 257.199 34.75 257.403 34.93C257.607 35.122 257.847 35.272 258.123 35.38C258.399 35.488 258.705 35.542 259.041 35.542C259.521 35.542 259.917 35.446 260.229 35.254C260.541 35.062 260.697 34.798 260.697 34.462C260.697 34.21 260.625 34.006 260.481 33.85C260.349 33.694 260.103 33.556 259.743 33.436C259.383 33.304 258.849 33.166 258.141 33.022C257.121 32.806 256.365 32.476 255.873 32.032C255.393 31.588 255.153 31 255.153 30.268C255.153 29.788 255.297 29.338 255.585 28.918C255.873 28.486 256.299 28.138 256.863 27.874C257.439 27.598 258.123 27.46 258.915 27.46C259.719 27.46 260.415 27.592 261.003 27.856C261.591 28.108 262.035 28.414 262.335 28.774C262.647 29.122 262.803 29.434 262.803 29.71C262.803 29.818 262.761 29.914 262.677 29.998C262.605 30.07 262.515 30.106 262.407 30.106H261.075C260.979 30.106 260.877 30.064 260.769 29.98C260.685 29.92 260.553 29.806 260.373 29.638C260.193 29.47 259.983 29.338 259.743 29.242C259.503 29.146 259.221 29.098 258.897 29.098C258.453 29.098 258.105 29.194 257.853 29.386C257.613 29.578 257.493 29.83 257.493 30.142C257.493 30.37 257.553 30.556 257.673 30.7C257.793 30.844 258.027 30.982 258.375 31.114C258.723 31.246 259.245 31.378 259.941 31.51C261.093 31.738 261.915 32.092 262.407 32.572C262.911 33.052 263.163 33.64 263.163 34.336C263.163 35.176 262.797 35.86 262.065 36.388C261.333 36.916 260.307 37.18 258.987 37.18Z" fill="#FCFCFC"/>
<rect x="1" y="1" width="337" height="59" rx="4" stroke="#FCFCFC" stroke-width="2"/>
</svg>
