<svg width="150" height="65" viewBox="0 0 150 65" fill="none" xmlns="http://www.w3.org/2000/svg">
<circle cx="32.5" cy="32.5" r="32.5" fill="#181818"/>
<path d="M17.2929 33.7071C16.9024 33.3166 16.9024 32.6834 17.2929 32.2929L23.6569 25.9289C24.0474 25.5384 24.6805 25.5384 25.0711 25.9289C25.4616 26.3195 25.4616 26.9526 25.0711 27.3431L19.4142 33L25.0711 38.6569C25.4616 39.0474 25.4616 39.6805 25.0711 40.0711C24.6805 40.4616 24.0474 40.4616 23.6569 40.0711L17.2929 33.7071ZM46 34L18 34L18 32L46 32L46 34Z" fill="#FCFCFC"/>
<circle cx="117.5" cy="32.5" r="32.5" fill="#181818"/>
<path d="M132.707 33.7071C133.098 33.3166 133.098 32.6834 132.707 32.2929L126.343 25.9289C125.953 25.5384 125.319 25.5384 124.929 25.9289C124.538 26.3195 124.538 26.9526 124.929 27.3431L130.586 33L124.929 38.6569C124.538 39.0474 124.538 39.6805 124.929 40.0711C125.319 40.4616 125.953 40.4616 126.343 40.0711L132.707 33.7071ZM104 34L132 34L132 32L104 32L104 34Z" fill="#FCFCFC"/>
</svg>
