<svg width="30" height="31" viewBox="0 0 30 31" fill="none" xmlns="http://www.w3.org/2000/svg">
<g filter="url(#filter0_d)">
<path d="M18.52 12C18.52 12.6962 18.3136 13.3767 17.9268 13.9556C17.54 14.5345 16.9902 14.9856 16.347 15.2521C15.7038 15.5185 14.9961 15.5882 14.3133 15.4524C13.6305 15.3165 13.0033 14.9813 12.511 14.489C12.0187 13.9967 11.6835 13.3695 11.5476 12.6867C11.4118 12.0039 11.4815 11.2962 11.7479 10.653C12.0144 10.0098 12.4655 9.46001 13.0444 9.07323C13.6233 8.68644 14.3038 8.48 15 8.48C15.9332 8.48107 16.8279 8.85227 17.4878 9.51216C18.1477 10.1721 18.5189 11.0668 18.52 12ZM26 7.16V16.84C25.9981 18.4732 25.3486 20.0389 24.1937 21.1937C23.0389 22.3486 21.4732 22.9981 19.84 23H10.16C8.52683 22.9981 6.96109 22.3486 5.80627 21.1937C4.65144 20.0389 4.00185 18.4732 4 16.84V7.16C4.00185 5.52683 4.65144 3.96109 5.80627 2.80627C6.96109 1.65144 8.52683 1.00185 10.16 1H19.84C21.4732 1.00185 23.0389 1.65144 24.1937 2.80627C25.3486 3.96109 25.9981 5.52683 26 7.16ZM20.28 12C20.28 10.9557 19.9703 9.93488 19.3902 9.06659C18.81 8.1983 17.9854 7.52155 17.0206 7.12192C16.0558 6.72229 14.9941 6.61772 13.9699 6.82145C12.9457 7.02518 12.0049 7.52806 11.2665 8.26648C10.5281 9.0049 10.0252 9.9457 9.82145 10.9699C9.61772 11.9941 9.72229 13.0558 10.1219 14.0206C10.5215 14.9854 11.1983 15.81 12.0666 16.3902C12.9349 16.9703 13.9557 17.28 15 17.28C16.3999 17.2784 17.7419 16.7216 18.7318 15.7318C19.7216 14.7419 20.2784 13.3999 20.28 12ZM22.04 6.28C22.04 6.01893 21.9626 5.76372 21.8175 5.54665C21.6725 5.32957 21.4663 5.16039 21.2251 5.06048C20.9839 4.96057 20.7185 4.93443 20.4625 4.98536C20.2064 5.0363 19.9712 5.16201 19.7866 5.34662C19.602 5.53122 19.4763 5.76643 19.4254 6.02248C19.3744 6.27854 19.4006 6.54394 19.5005 6.78514C19.6004 7.02634 19.7696 7.2325 19.9866 7.37754C20.2037 7.52258 20.4589 7.6 20.72 7.6C21.0701 7.6 21.4058 7.46093 21.6534 7.21338C21.9009 6.96583 22.04 6.63009 22.04 6.28Z" fill="#080029"/>
</g>
<defs>
<filter id="filter0_d" x="-1" y="0" width="32" height="32" filterUnits="userSpaceOnUse" color-interpolation-filters="sRGB">
<feFlood flood-opacity="0" result="BackgroundImageFix"/>
<feColorMatrix in="SourceAlpha" type="matrix" values="0 0 0 0 0 0 0 0 0 0 0 0 0 0 0 0 0 0 127 0"/>
<feOffset dy="4"/>
<feGaussianBlur stdDeviation="2"/>
<feColorMatrix type="matrix" values="0 0 0 0 0 0 0 0 0 0 0 0 0 0 0 0 0 0 0.25 0"/>
<feBlend mode="normal" in2="BackgroundImageFix" result="effect1_dropShadow"/>
<feBlend mode="normal" in="SourceGraphic" in2="effect1_dropShadow" result="shape"/>
</filter>
</defs>
</svg>
