<svg width="59" height="46" viewBox="0 0 59 46" fill="none" xmlns="http://www.w3.org/2000/svg">
<g filter="url(#filter0_d)">
<path d="M26.1348 35.5654C27.4082 36.2021 30.7192 37.0935 33.7755 35.5654" stroke="black" stroke-width="2.14582" stroke-linecap="round"/>
<path d="M13.6076 5.81018C12.2964 8.69216 9.81331 9.64348 7.86919 9.12255C5.92507 8.60163 4.40311 5.96606 4.92394 4.02229C5.44477 2.07852 8.08061 0.557039 10.0247 1.07796C11.9688 1.59889 14.1284 3.86641 13.6076 5.81018Z" fill="#0B0B0B"/>
<path d="M45.9536 5.8594C47.2655 8.74323 49.7498 9.69526 51.6948 9.1741C53.6398 8.65294 55.1624 6.01579 54.6412 4.07079C54.12 2.12578 51.4829 0.603222 49.5379 1.12439C47.5929 1.64555 45.4324 3.91439 45.9536 5.8594Z" fill="#0B0B0B"/>
<path d="M18.1713 32.9077C15.4236 32.9077 13.2605 32.2354 11.682 30.8908C10.1036 29.5462 9.26561 27.5682 9.16818 24.9569C9.14869 24.3918 9.13894 23.5538 9.13894 22.4431C9.13894 21.3128 9.14869 20.4651 9.16818 19.9C9.26561 17.3277 10.1133 15.3497 11.7113 13.9662C13.3287 12.5631 15.482 11.8615 18.1713 11.8615C20.8605 11.8615 23.0138 12.5631 24.6313 13.9662C26.2487 15.3497 27.0964 17.3277 27.1743 19.9C27.2133 21.0303 27.2328 21.878 27.2328 22.4431C27.2328 22.9887 27.2133 23.8267 27.1743 24.9569C27.0769 27.5682 26.2389 29.5462 24.6605 30.8908C23.082 32.2354 20.9189 32.9077 18.1713 32.9077ZM18.1713 28.6985C19.243 28.6985 20.0907 28.3769 20.7143 27.7338C21.3574 27.0908 21.6984 26.1067 21.7374 24.7815C21.7764 23.6513 21.7959 22.8523 21.7959 22.3846C21.7959 21.878 21.7764 21.079 21.7374 19.9877C21.6984 18.6626 21.3574 17.6785 20.7143 17.0354C20.0713 16.3923 19.2236 16.0708 18.1713 16.0708C17.1189 16.0708 16.2713 16.3923 15.6282 17.0354C15.0046 17.6785 14.6636 18.6626 14.6051 19.9877C14.5856 20.5333 14.5759 21.3323 14.5759 22.3846C14.5759 23.4174 14.5856 24.2164 14.6051 24.7815C14.6636 26.1067 15.0046 27.0908 15.6282 27.7338C16.2518 28.3769 17.0995 28.6985 18.1713 28.6985ZM41.9041 32.9077C39.1564 32.9077 36.9934 32.2354 35.4149 30.8908C33.8364 29.5462 32.9985 27.5682 32.901 24.9569C32.8816 24.3918 32.8718 23.5538 32.8718 22.4431C32.8718 21.3128 32.8816 20.4651 32.901 19.9C32.9985 17.3277 33.8462 15.3497 35.4441 13.9662C37.0616 12.5631 39.2149 11.8615 41.9041 11.8615C44.5934 11.8615 46.7467 12.5631 48.3641 13.9662C49.9816 15.3497 50.8293 17.3277 50.9072 19.9C50.9462 21.0303 50.9657 21.878 50.9657 22.4431C50.9657 22.9887 50.9462 23.8267 50.9072 24.9569C50.8098 27.5682 49.9718 29.5462 48.3934 30.8908C46.8149 32.2354 44.6518 32.9077 41.9041 32.9077ZM41.9041 28.6985C42.9759 28.6985 43.8236 28.3769 44.4472 27.7338C45.0903 27.0908 45.4313 26.1067 45.4703 24.7815C45.5093 23.6513 45.5287 22.8523 45.5287 22.3846C45.5287 21.878 45.5093 21.079 45.4703 19.9877C45.4313 18.6626 45.0903 17.6785 44.4472 17.0354C43.8041 16.3923 42.9564 16.0708 41.9041 16.0708C40.8518 16.0708 40.0041 16.3923 39.361 17.0354C38.7375 17.6785 38.3964 18.6626 38.338 19.9877C38.3185 20.5333 38.3087 21.3323 38.3087 22.3846C38.3087 23.4174 38.3185 24.2164 38.338 24.7815C38.3964 26.1067 38.7375 27.0908 39.361 27.7338C39.9846 28.3769 40.8323 28.6985 41.9041 28.6985Z" fill="black"/>
</g>
<defs>
<filter id="filter0_d" x="-0.153809" y="0" width="59.8735" height="48" filterUnits="userSpaceOnUse" color-interpolation-filters="sRGB">
<feFlood flood-opacity="0" result="BackgroundImageFix"/>
<feColorMatrix in="SourceAlpha" type="matrix" values="0 0 0 0 0 0 0 0 0 0 0 0 0 0 0 0 0 0 127 0"/>
<feOffset dy="4"/>
<feGaussianBlur stdDeviation="2"/>
<feColorMatrix type="matrix" values="0 0 0 0 0 0 0 0 0 0 0 0 0 0 0 0 0 0 0.25 0"/>
<feBlend mode="normal" in2="BackgroundImageFix" result="effect1_dropShadow"/>
<feBlend mode="normal" in="SourceGraphic" in2="effect1_dropShadow" result="shape"/>
</filter>
</defs>
</svg>
