<svg width="267" height="61" viewBox="0 0 267 61" fill="none" xmlns="http://www.w3.org/2000/svg">
<path d="M78.4974 37C78.3174 37 78.1734 36.952 78.0654 36.856C77.9574 36.76 77.8914 36.628 77.8674 36.46L75.7254 24.922L75.7074 24.778C75.7074 24.67 75.7434 24.58 75.8154 24.508C75.8994 24.436 75.9894 24.4 76.0854 24.4H77.6694C77.9694 24.4 78.1374 24.52 78.1734 24.76L79.6674 32.914L81.2874 27.64C81.4074 27.34 81.6054 27.19 81.8814 27.19H82.8534C83.1534 27.19 83.3454 27.34 83.4294 27.64L85.0674 32.896L86.5614 24.76C86.5854 24.628 86.6334 24.538 86.7054 24.49C86.7894 24.43 86.9094 24.4 87.0654 24.4H88.6494C88.7454 24.4 88.8294 24.436 88.9014 24.508C88.9734 24.58 89.0094 24.67 89.0094 24.778C89.0094 24.838 89.0034 24.886 88.9914 24.922L86.8494 36.46C86.7894 36.82 86.5794 37 86.2194 37H85.0134C84.8454 37 84.7074 36.958 84.5994 36.874C84.4914 36.79 84.4194 36.682 84.3834 36.55L82.3674 30.538L80.3514 36.55C80.2314 36.85 80.0154 37 79.7034 37H78.4974ZM93.238 37.18C92.626 37.18 92.062 37.06 91.546 36.82C91.042 36.568 90.64 36.232 90.34 35.812C90.052 35.392 89.908 34.93 89.908 34.426C89.908 33.61 90.238 32.95 90.898 32.446C91.558 31.942 92.464 31.6 93.616 31.42L96.082 31.06V30.682C96.082 30.154 95.95 29.758 95.686 29.494C95.422 29.23 94.996 29.098 94.408 29.098C94.012 29.098 93.688 29.176 93.436 29.332C93.196 29.476 93.004 29.62 92.86 29.764C92.716 29.92 92.62 30.022 92.572 30.07C92.524 30.214 92.434 30.286 92.302 30.286H90.916C90.808 30.286 90.712 30.25 90.628 30.178C90.556 30.106 90.52 30.01 90.52 29.89C90.532 29.59 90.676 29.248 90.952 28.864C91.24 28.48 91.678 28.15 92.266 27.874C92.854 27.598 93.574 27.46 94.426 27.46C95.842 27.46 96.874 27.778 97.522 28.414C98.17 29.05 98.494 29.884 98.494 30.916V36.568C98.494 36.688 98.452 36.79 98.368 36.874C98.296 36.958 98.194 37 98.062 37H96.604C96.484 37 96.382 36.958 96.298 36.874C96.214 36.79 96.172 36.688 96.172 36.568V35.866C95.908 36.25 95.53 36.568 95.038 36.82C94.558 37.06 93.958 37.18 93.238 37.18ZM93.85 35.47C94.51 35.47 95.05 35.254 95.47 34.822C95.89 34.39 96.1 33.76 96.1 32.932V32.554L94.3 32.842C93.604 32.95 93.076 33.124 92.716 33.364C92.368 33.604 92.194 33.898 92.194 34.246C92.194 34.63 92.356 34.93 92.68 35.146C93.004 35.362 93.394 35.47 93.85 35.47ZM104.945 37C103.853 37 103.031 36.718 102.479 36.154C101.939 35.578 101.669 34.738 101.669 33.634V29.548H100.247C100.127 29.548 100.025 29.506 99.9413 29.422C99.8573 29.326 99.8153 29.218 99.8153 29.098V28.072C99.8153 27.952 99.8573 27.85 99.9413 27.766C100.025 27.682 100.127 27.64 100.247 27.64H101.669V24.652C101.669 24.52 101.711 24.418 101.795 24.346C101.879 24.262 101.981 24.22 102.101 24.22H103.559C103.691 24.22 103.793 24.262 103.865 24.346C103.949 24.418 103.991 24.52 103.991 24.652V27.64H106.241C106.373 27.64 106.475 27.682 106.547 27.766C106.631 27.838 106.673 27.94 106.673 28.072V29.098C106.673 29.23 106.631 29.338 106.547 29.422C106.463 29.506 106.361 29.548 106.241 29.548H103.991V33.454C103.991 33.97 104.081 34.36 104.261 34.624C104.441 34.888 104.741 35.02 105.161 35.02H106.403C106.523 35.02 106.625 35.062 106.709 35.146C106.793 35.23 106.835 35.332 106.835 35.452V36.568C106.835 36.688 106.793 36.79 106.709 36.874C106.637 36.958 106.535 37 106.403 37H104.945ZM112.482 37.18C111.162 37.18 110.106 36.814 109.314 36.082C108.534 35.35 108.12 34.336 108.072 33.04L108.054 32.32L108.072 31.6C108.12 30.304 108.534 29.29 109.314 28.558C110.106 27.826 111.162 27.46 112.482 27.46C113.418 27.46 114.21 27.628 114.858 27.964C115.518 28.3 116.004 28.714 116.316 29.206C116.64 29.686 116.814 30.142 116.838 30.574C116.85 30.694 116.808 30.796 116.712 30.88C116.628 30.964 116.526 31.006 116.406 31.006H114.822C114.702 31.006 114.606 30.982 114.534 30.934C114.474 30.874 114.414 30.778 114.354 30.646C114.174 30.178 113.934 29.842 113.634 29.638C113.346 29.434 112.974 29.332 112.518 29.332C111.906 29.332 111.426 29.53 111.078 29.926C110.73 30.31 110.544 30.898 110.52 31.69L110.502 32.356L110.52 32.95C110.568 34.522 111.234 35.308 112.518 35.308C112.986 35.308 113.364 35.206 113.652 35.002C113.94 34.798 114.174 34.462 114.354 33.994C114.414 33.862 114.474 33.772 114.534 33.724C114.606 33.664 114.702 33.634 114.822 33.634H116.406C116.526 33.634 116.628 33.676 116.712 33.76C116.808 33.844 116.85 33.946 116.838 34.066C116.814 34.486 116.646 34.936 116.334 35.416C116.022 35.896 115.542 36.31 114.894 36.658C114.246 37.006 113.442 37.18 112.482 37.18ZM119.165 37C119.045 37 118.943 36.958 118.859 36.874C118.775 36.79 118.733 36.688 118.733 36.568V24.652C118.733 24.52 118.775 24.418 118.859 24.346C118.943 24.262 119.045 24.22 119.165 24.22H120.767C120.899 24.22 121.001 24.262 121.073 24.346C121.157 24.418 121.199 24.52 121.199 24.652V28.756C121.919 27.892 122.891 27.46 124.115 27.46C125.219 27.46 126.101 27.826 126.761 28.558C127.421 29.278 127.751 30.262 127.751 31.51V36.568C127.751 36.688 127.709 36.79 127.625 36.874C127.553 36.958 127.451 37 127.319 37H125.699C125.579 37 125.477 36.958 125.393 36.874C125.309 36.79 125.267 36.688 125.267 36.568V31.618C125.267 30.91 125.093 30.364 124.745 29.98C124.409 29.584 123.917 29.386 123.269 29.386C122.633 29.386 122.129 29.584 121.757 29.98C121.385 30.376 121.199 30.922 121.199 31.618V36.568C121.199 36.688 121.157 36.79 121.073 36.874C121.001 36.958 120.899 37 120.767 37H119.165ZM138.289 37.18C136.885 37.18 135.799 36.82 135.031 36.1C134.263 35.368 133.849 34.372 133.789 33.112L133.771 32.32L133.789 31.528C133.849 30.28 134.269 29.29 135.049 28.558C135.829 27.826 136.909 27.46 138.289 27.46C139.669 27.46 140.749 27.826 141.529 28.558C142.309 29.29 142.729 30.28 142.789 31.528C142.801 31.672 142.807 31.936 142.807 32.32C142.807 32.704 142.801 32.968 142.789 33.112C142.729 34.372 142.315 35.368 141.547 36.1C140.779 36.82 139.693 37.18 138.289 37.18ZM138.289 35.398C138.925 35.398 139.417 35.2 139.765 34.804C140.113 34.396 140.305 33.802 140.341 33.022C140.353 32.902 140.359 32.668 140.359 32.32C140.359 31.972 140.353 31.738 140.341 31.618C140.305 30.838 140.113 30.25 139.765 29.854C139.417 29.446 138.925 29.242 138.289 29.242C137.653 29.242 137.161 29.446 136.813 29.854C136.465 30.25 136.273 30.838 136.237 31.618L136.219 32.32L136.237 33.022C136.273 33.802 136.465 34.396 136.813 34.804C137.161 35.2 137.653 35.398 138.289 35.398ZM145.233 37C145.113 37 145.011 36.958 144.927 36.874C144.843 36.79 144.801 36.688 144.801 36.568V28.072C144.801 27.952 144.843 27.85 144.927 27.766C145.011 27.682 145.113 27.64 145.233 27.64H146.709C146.829 27.64 146.931 27.682 147.015 27.766C147.099 27.85 147.141 27.952 147.141 28.072V28.81C147.849 27.91 148.851 27.46 150.147 27.46C151.251 27.46 152.127 27.826 152.775 28.558C153.423 29.278 153.747 30.262 153.747 31.51V36.568C153.747 36.688 153.705 36.79 153.621 36.874C153.549 36.958 153.447 37 153.315 37H151.731C151.611 37 151.509 36.958 151.425 36.874C151.341 36.79 151.299 36.688 151.299 36.568V31.618C151.299 30.91 151.125 30.364 150.777 29.98C150.441 29.584 149.949 29.386 149.301 29.386C148.665 29.386 148.161 29.584 147.789 29.98C147.429 30.376 147.249 30.922 147.249 31.618V36.568C147.249 36.688 147.207 36.79 147.123 36.874C147.051 36.958 146.949 37 146.817 37H145.233ZM156.484 37C156.364 37 156.262 36.958 156.178 36.874C156.094 36.79 156.052 36.688 156.052 36.568V24.652C156.052 24.52 156.094 24.418 156.178 24.346C156.262 24.262 156.364 24.22 156.484 24.22H157.978C158.11 24.22 158.212 24.262 158.284 24.346C158.368 24.418 158.41 24.52 158.41 24.652V36.568C158.41 36.688 158.368 36.79 158.284 36.874C158.212 36.958 158.11 37 157.978 37H156.484ZM161.157 26.092C161.037 26.092 160.935 26.05 160.851 25.966C160.767 25.882 160.725 25.78 160.725 25.66V24.364C160.725 24.244 160.767 24.142 160.851 24.058C160.935 23.974 161.037 23.932 161.157 23.932H162.795C162.915 23.932 163.017 23.974 163.101 24.058C163.197 24.142 163.245 24.244 163.245 24.364V25.66C163.245 25.78 163.203 25.882 163.119 25.966C163.035 26.05 162.927 26.092 162.795 26.092H161.157ZM161.229 37C161.109 37 161.007 36.958 160.923 36.874C160.839 36.79 160.797 36.688 160.797 36.568V28.072C160.797 27.952 160.839 27.85 160.923 27.766C161.007 27.682 161.109 27.64 161.229 27.64H162.723C162.855 27.64 162.957 27.682 163.029 27.766C163.113 27.838 163.155 27.94 163.155 28.072V36.568C163.155 36.688 163.113 36.79 163.029 36.874C162.957 36.958 162.855 37 162.723 37H161.229ZM165.975 37C165.855 37 165.753 36.958 165.669 36.874C165.585 36.79 165.543 36.688 165.543 36.568V28.072C165.543 27.952 165.585 27.85 165.669 27.766C165.753 27.682 165.855 27.64 165.975 27.64H167.451C167.571 27.64 167.673 27.682 167.757 27.766C167.841 27.85 167.883 27.952 167.883 28.072V28.81C168.591 27.91 169.593 27.46 170.889 27.46C171.993 27.46 172.869 27.826 173.517 28.558C174.165 29.278 174.489 30.262 174.489 31.51V36.568C174.489 36.688 174.447 36.79 174.363 36.874C174.291 36.958 174.189 37 174.057 37H172.473C172.353 37 172.251 36.958 172.167 36.874C172.083 36.79 172.041 36.688 172.041 36.568V31.618C172.041 30.91 171.867 30.364 171.519 29.98C171.183 29.584 170.691 29.386 170.043 29.386C169.407 29.386 168.903 29.584 168.531 29.98C168.171 30.376 167.991 30.922 167.991 31.618V36.568C167.991 36.688 167.949 36.79 167.865 36.874C167.793 36.958 167.691 37 167.559 37H165.975ZM180.808 37.18C179.476 37.18 178.414 36.796 177.622 36.028C176.842 35.248 176.428 34.156 176.38 32.752L176.362 32.302L176.38 31.852C176.44 30.484 176.86 29.41 177.64 28.63C178.432 27.85 179.488 27.46 180.808 27.46C182.224 27.46 183.316 27.892 184.084 28.756C184.864 29.62 185.254 30.772 185.254 32.212V32.59C185.254 32.71 185.212 32.812 185.128 32.896C185.044 32.98 184.936 33.022 184.804 33.022H178.828V33.166C178.852 33.826 179.032 34.384 179.368 34.84C179.716 35.284 180.19 35.506 180.79 35.506C181.498 35.506 182.068 35.23 182.5 34.678C182.608 34.546 182.692 34.462 182.752 34.426C182.824 34.39 182.926 34.372 183.058 34.372H184.606C184.714 34.372 184.804 34.408 184.876 34.48C184.96 34.54 185.002 34.618 185.002 34.714C185.002 35.002 184.828 35.344 184.48 35.74C184.144 36.124 183.658 36.46 183.022 36.748C182.386 37.036 181.648 37.18 180.808 37.18ZM182.806 31.51V31.456C182.806 30.748 182.626 30.178 182.266 29.746C181.918 29.314 181.432 29.098 180.808 29.098C180.184 29.098 179.698 29.314 179.35 29.746C179.002 30.178 178.828 30.748 178.828 31.456V31.51H182.806Z" fill="#080029"/>
<rect x="1" y="1" width="259" height="59" rx="4" stroke="#080029" stroke-width="2"/>
</svg>
