<svg width="218" height="61" viewBox="0 0 218 61" fill="none" xmlns="http://www.w3.org/2000/svg">
<rect width="218" height="61" rx="5" fill="#0F0049"/>
<path d="M79.8316 37C79.7116 37 79.6096 36.958 79.5256 36.874C79.4416 36.79 79.3996 36.688 79.3996 36.568V26.614H76.0696C75.9496 26.614 75.8476 26.572 75.7636 26.488C75.6796 26.404 75.6376 26.302 75.6376 26.182V24.85C75.6376 24.718 75.6736 24.61 75.7456 24.526C75.8296 24.442 75.9376 24.4 76.0696 24.4H85.2496C85.3816 24.4 85.4896 24.442 85.5736 24.526C85.6576 24.61 85.6996 24.718 85.6996 24.85V26.182C85.6996 26.302 85.6576 26.404 85.5736 26.488C85.4896 26.572 85.3816 26.614 85.2496 26.614H81.9376V36.568C81.9376 36.688 81.8956 36.79 81.8116 36.874C81.7276 36.958 81.6196 37 81.4876 37H79.8316ZM86.5292 37C86.4092 37 86.3072 36.958 86.2232 36.874C86.1392 36.79 86.0972 36.688 86.0972 36.568V28.09C86.0972 27.97 86.1392 27.868 86.2232 27.784C86.3072 27.688 86.4092 27.64 86.5292 27.64H87.9872C88.1192 27.64 88.2272 27.682 88.3112 27.766C88.3952 27.85 88.4372 27.958 88.4372 28.09V28.828C88.7252 28.444 89.0852 28.15 89.5172 27.946C89.9612 27.742 90.4652 27.64 91.0292 27.64H91.7672C91.8992 27.64 92.0012 27.682 92.0732 27.766C92.1572 27.838 92.1992 27.94 92.1992 28.072V29.368C92.1992 29.488 92.1572 29.59 92.0732 29.674C92.0012 29.758 91.8992 29.8 91.7672 29.8H90.3632C89.7992 29.8 89.3552 29.962 89.0312 30.286C88.7072 30.61 88.5452 31.054 88.5452 31.618V36.568C88.5452 36.688 88.5032 36.79 88.4192 36.874C88.3352 36.958 88.2272 37 88.0952 37H86.5292ZM95.295 40.42C95.199 40.42 95.115 40.384 95.043 40.312C94.971 40.24 94.935 40.156 94.935 40.06C94.935 39.952 94.959 39.856 95.007 39.772L96.411 36.442L92.955 28.288C92.907 28.18 92.883 28.096 92.883 28.036C92.895 27.928 92.937 27.838 93.009 27.766C93.081 27.682 93.171 27.64 93.279 27.64H94.737C94.965 27.64 95.127 27.754 95.223 27.982L97.617 33.868L100.083 27.982C100.179 27.754 100.341 27.64 100.569 27.64H102.009C102.105 27.64 102.189 27.676 102.261 27.748C102.345 27.82 102.387 27.904 102.387 28C102.387 28.084 102.363 28.18 102.315 28.288L97.221 40.078C97.113 40.306 96.945 40.42 96.717 40.42H95.295ZM108.01 37C107.89 37 107.788 36.958 107.704 36.874C107.62 36.79 107.578 36.688 107.578 36.568V28.072C107.578 27.952 107.62 27.85 107.704 27.766C107.788 27.682 107.89 27.64 108.01 27.64H109.486C109.606 27.64 109.708 27.682 109.792 27.766C109.876 27.85 109.918 27.952 109.918 28.072V28.81C110.626 27.91 111.628 27.46 112.924 27.46C114.028 27.46 114.904 27.826 115.552 28.558C116.2 29.278 116.524 30.262 116.524 31.51V36.568C116.524 36.688 116.482 36.79 116.398 36.874C116.326 36.958 116.224 37 116.092 37H114.508C114.388 37 114.286 36.958 114.202 36.874C114.118 36.79 114.076 36.688 114.076 36.568V31.618C114.076 30.91 113.902 30.364 113.554 29.98C113.218 29.584 112.726 29.386 112.078 29.386C111.442 29.386 110.938 29.584 110.566 29.98C110.206 30.376 110.026 30.922 110.026 31.618V36.568C110.026 36.688 109.984 36.79 109.9 36.874C109.828 36.958 109.726 37 109.594 37H108.01ZM122.95 37.18C121.546 37.18 120.46 36.82 119.692 36.1C118.924 35.368 118.51 34.372 118.45 33.112L118.432 32.32L118.45 31.528C118.51 30.28 118.93 29.29 119.71 28.558C120.49 27.826 121.57 27.46 122.95 27.46C124.33 27.46 125.41 27.826 126.19 28.558C126.97 29.29 127.39 30.28 127.45 31.528C127.462 31.672 127.468 31.936 127.468 32.32C127.468 32.704 127.462 32.968 127.45 33.112C127.39 34.372 126.976 35.368 126.208 36.1C125.44 36.82 124.354 37.18 122.95 37.18ZM122.95 35.398C123.586 35.398 124.078 35.2 124.426 34.804C124.774 34.396 124.966 33.802 125.002 33.022C125.014 32.902 125.02 32.668 125.02 32.32C125.02 31.972 125.014 31.738 125.002 31.618C124.966 30.838 124.774 30.25 124.426 29.854C124.078 29.446 123.586 29.242 122.95 29.242C122.314 29.242 121.822 29.446 121.474 29.854C121.126 30.25 120.934 30.838 120.898 31.618L120.88 32.32L120.898 33.022C120.934 33.802 121.126 34.396 121.474 34.804C121.822 35.2 122.314 35.398 122.95 35.398ZM131.755 37C131.599 37 131.473 36.964 131.377 36.892C131.293 36.808 131.221 36.694 131.161 36.55L128.587 28.198C128.575 28.162 128.569 28.108 128.569 28.036C128.569 27.928 128.605 27.838 128.677 27.766C128.761 27.682 128.851 27.64 128.947 27.64H130.279C130.411 27.64 130.519 27.676 130.603 27.748C130.687 27.82 130.741 27.898 130.765 27.982L132.529 33.94L134.401 28.036C134.437 27.928 134.497 27.838 134.581 27.766C134.677 27.682 134.797 27.64 134.941 27.64H135.841C135.985 27.64 136.099 27.682 136.183 27.766C136.279 27.838 136.345 27.928 136.381 28.036L138.253 33.94L140.017 27.982C140.029 27.898 140.077 27.82 140.161 27.748C140.257 27.676 140.365 27.64 140.485 27.64H141.817C141.925 27.64 142.015 27.682 142.087 27.766C142.171 27.838 142.213 27.928 142.213 28.036L142.177 28.198L139.603 36.55C139.555 36.694 139.483 36.808 139.387 36.892C139.303 36.964 139.183 37 139.027 37H137.857C137.545 37 137.347 36.85 137.263 36.55L135.391 30.862L133.519 36.55C133.423 36.85 133.219 37 132.907 37H131.755Z" fill="#FCFCFC"/>
</svg>
