<svg width="127" height="26" viewBox="0 0 127 26" fill="none" xmlns="http://www.w3.org/2000/svg">
<path d="M3.81189 17C3.63189 17 3.48789 16.952 3.37989 16.856C3.27189 16.76 3.20589 16.628 3.18189 16.46L1.03989 4.922L1.02189 4.778C1.02189 4.67 1.05789 4.58 1.12989 4.508C1.21389 4.436 1.30389 4.4 1.39989 4.4H2.98389C3.28389 4.4 3.45189 4.52 3.48789 4.76L4.98189 12.914L6.60189 7.64C6.72189 7.34 6.91989 7.19 7.19589 7.19H8.16789C8.46789 7.19 8.65989 7.34 8.74389 7.64L10.3819 12.896L11.8759 4.76C11.8999 4.628 11.9479 4.538 12.0199 4.49C12.1039 4.43 12.2239 4.4 12.3799 4.4H13.9639C14.0599 4.4 14.1439 4.436 14.2159 4.508C14.2879 4.58 14.3239 4.67 14.3239 4.778C14.3239 4.838 14.3179 4.886 14.3059 4.922L12.1639 16.46C12.1039 16.82 11.8939 17 11.5339 17H10.3279C10.1599 17 10.0219 16.958 9.91389 16.874C9.80589 16.79 9.73389 16.682 9.69789 16.55L7.68189 10.538L5.66589 16.55C5.54589 16.85 5.32989 17 5.01789 17H3.81189ZM18.5525 17.18C17.9405 17.18 17.3765 17.06 16.8605 16.82C16.3565 16.568 15.9545 16.232 15.6545 15.812C15.3665 15.392 15.2225 14.93 15.2225 14.426C15.2225 13.61 15.5525 12.95 16.2125 12.446C16.8725 11.942 17.7785 11.6 18.9305 11.42L21.3965 11.06V10.682C21.3965 10.154 21.2645 9.758 21.0005 9.494C20.7365 9.23 20.3105 9.098 19.7225 9.098C19.3265 9.098 19.0025 9.176 18.7505 9.332C18.5105 9.476 18.3185 9.62 18.1745 9.764C18.0305 9.92 17.9345 10.022 17.8865 10.07C17.8385 10.214 17.7485 10.286 17.6165 10.286H16.2305C16.1225 10.286 16.0265 10.25 15.9425 10.178C15.8705 10.106 15.8345 10.01 15.8345 9.89C15.8465 9.59 15.9905 9.248 16.2665 8.864C16.5545 8.48 16.9925 8.15 17.5805 7.874C18.1685 7.598 18.8885 7.46 19.7405 7.46C21.1565 7.46 22.1885 7.778 22.8365 8.414C23.4845 9.05 23.8085 9.884 23.8085 10.916V16.568C23.8085 16.688 23.7665 16.79 23.6825 16.874C23.6105 16.958 23.5085 17 23.3765 17H21.9185C21.7985 17 21.6965 16.958 21.6125 16.874C21.5285 16.79 21.4865 16.688 21.4865 16.568V15.866C21.2225 16.25 20.8445 16.568 20.3525 16.82C19.8725 17.06 19.2725 17.18 18.5525 17.18ZM19.1645 15.47C19.8245 15.47 20.3645 15.254 20.7845 14.822C21.2045 14.39 21.4145 13.76 21.4145 12.932V12.554L19.6145 12.842C18.9185 12.95 18.3905 13.124 18.0305 13.364C17.6825 13.604 17.5085 13.898 17.5085 14.246C17.5085 14.63 17.6705 14.93 17.9945 15.146C18.3185 15.362 18.7085 15.47 19.1645 15.47ZM30.2598 17C29.1678 17 28.3458 16.718 27.7938 16.154C27.2538 15.578 26.9838 14.738 26.9838 13.634V9.548H25.5618C25.4418 9.548 25.3398 9.506 25.2558 9.422C25.1718 9.326 25.1298 9.218 25.1298 9.098V8.072C25.1298 7.952 25.1718 7.85 25.2558 7.766C25.3398 7.682 25.4418 7.64 25.5618 7.64H26.9838V4.652C26.9838 4.52 27.0258 4.418 27.1098 4.346C27.1938 4.262 27.2958 4.22 27.4158 4.22H28.8738C29.0058 4.22 29.1078 4.262 29.1798 4.346C29.2638 4.418 29.3058 4.52 29.3058 4.652V7.64H31.5558C31.6878 7.64 31.7898 7.682 31.8618 7.766C31.9458 7.838 31.9878 7.94 31.9878 8.072V9.098C31.9878 9.23 31.9458 9.338 31.8618 9.422C31.7778 9.506 31.6758 9.548 31.5558 9.548H29.3058V13.454C29.3058 13.97 29.3958 14.36 29.5758 14.624C29.7558 14.888 30.0558 15.02 30.4758 15.02H31.7178C31.8378 15.02 31.9398 15.062 32.0238 15.146C32.1078 15.23 32.1498 15.332 32.1498 15.452V16.568C32.1498 16.688 32.1078 16.79 32.0238 16.874C31.9518 16.958 31.8498 17 31.7178 17H30.2598ZM37.7966 17.18C36.4766 17.18 35.4206 16.814 34.6286 16.082C33.8486 15.35 33.4346 14.336 33.3866 13.04L33.3686 12.32L33.3866 11.6C33.4346 10.304 33.8486 9.29 34.6286 8.558C35.4206 7.826 36.4766 7.46 37.7966 7.46C38.7326 7.46 39.5246 7.628 40.1726 7.964C40.8326 8.3 41.3186 8.714 41.6306 9.206C41.9546 9.686 42.1286 10.142 42.1526 10.574C42.1646 10.694 42.1226 10.796 42.0266 10.88C41.9426 10.964 41.8406 11.006 41.7206 11.006H40.1366C40.0166 11.006 39.9206 10.982 39.8486 10.934C39.7886 10.874 39.7286 10.778 39.6686 10.646C39.4886 10.178 39.2486 9.842 38.9486 9.638C38.6606 9.434 38.2886 9.332 37.8326 9.332C37.2206 9.332 36.7406 9.53 36.3926 9.926C36.0446 10.31 35.8586 10.898 35.8346 11.69L35.8166 12.356L35.8346 12.95C35.8826 14.522 36.5486 15.308 37.8326 15.308C38.3006 15.308 38.6786 15.206 38.9666 15.002C39.2546 14.798 39.4886 14.462 39.6686 13.994C39.7286 13.862 39.7886 13.772 39.8486 13.724C39.9206 13.664 40.0166 13.634 40.1366 13.634H41.7206C41.8406 13.634 41.9426 13.676 42.0266 13.76C42.1226 13.844 42.1646 13.946 42.1526 14.066C42.1286 14.486 41.9606 14.936 41.6486 15.416C41.3366 15.896 40.8566 16.31 40.2086 16.658C39.5606 17.006 38.7566 17.18 37.7966 17.18ZM44.4798 17C44.3598 17 44.2578 16.958 44.1738 16.874C44.0898 16.79 44.0478 16.688 44.0478 16.568V4.652C44.0478 4.52 44.0898 4.418 44.1738 4.346C44.2578 4.262 44.3598 4.22 44.4798 4.22H46.0818C46.2138 4.22 46.3158 4.262 46.3878 4.346C46.4718 4.418 46.5138 4.52 46.5138 4.652V8.756C47.2338 7.892 48.2058 7.46 49.4298 7.46C50.5338 7.46 51.4158 7.826 52.0758 8.558C52.7358 9.278 53.0658 10.262 53.0658 11.51V16.568C53.0658 16.688 53.0238 16.79 52.9398 16.874C52.8678 16.958 52.7658 17 52.6338 17H51.0138C50.8938 17 50.7918 16.958 50.7078 16.874C50.6238 16.79 50.5818 16.688 50.5818 16.568V11.618C50.5818 10.91 50.4078 10.364 50.0598 9.98C49.7238 9.584 49.2318 9.386 48.5838 9.386C47.9478 9.386 47.4438 9.584 47.0718 9.98C46.6998 10.376 46.5138 10.922 46.5138 11.618V16.568C46.5138 16.688 46.4718 16.79 46.3878 16.874C46.3158 16.958 46.2138 17 46.0818 17H44.4798ZM59.8954 17C59.7754 17 59.6734 16.958 59.5894 16.874C59.5054 16.79 59.4634 16.688 59.4634 16.568V8.072C59.4634 7.952 59.5054 7.85 59.5894 7.766C59.6734 7.682 59.7754 7.64 59.8954 7.64H61.3714C61.4914 7.64 61.5934 7.682 61.6774 7.766C61.7614 7.85 61.8034 7.952 61.8034 8.072V8.81C62.5114 7.91 63.5134 7.46 64.8094 7.46C65.9134 7.46 66.7894 7.826 67.4374 8.558C68.0854 9.278 68.4094 10.262 68.4094 11.51V16.568C68.4094 16.688 68.3674 16.79 68.2834 16.874C68.2114 16.958 68.1094 17 67.9774 17H66.3934C66.2734 17 66.1714 16.958 66.0874 16.874C66.0034 16.79 65.9614 16.688 65.9614 16.568V11.618C65.9614 10.91 65.7874 10.364 65.4394 9.98C65.1034 9.584 64.6114 9.386 63.9634 9.386C63.3274 9.386 62.8234 9.584 62.4514 9.98C62.0914 10.376 61.9114 10.922 61.9114 11.618V16.568C61.9114 16.688 61.8694 16.79 61.7854 16.874C61.7134 16.958 61.6114 17 61.4794 17H59.8954ZM74.8358 17.18C73.4318 17.18 72.3458 16.82 71.5778 16.1C70.8098 15.368 70.3958 14.372 70.3358 13.112L70.3178 12.32L70.3358 11.528C70.3958 10.28 70.8158 9.29 71.5958 8.558C72.3758 7.826 73.4558 7.46 74.8358 7.46C76.2158 7.46 77.2958 7.826 78.0758 8.558C78.8558 9.29 79.2758 10.28 79.3358 11.528C79.3478 11.672 79.3538 11.936 79.3538 12.32C79.3538 12.704 79.3478 12.968 79.3358 13.112C79.2758 14.372 78.8618 15.368 78.0938 16.1C77.3258 16.82 76.2398 17.18 74.8358 17.18ZM74.8358 15.398C75.4718 15.398 75.9638 15.2 76.3118 14.804C76.6598 14.396 76.8518 13.802 76.8878 13.022C76.8998 12.902 76.9058 12.668 76.9058 12.32C76.9058 11.972 76.8998 11.738 76.8878 11.618C76.8518 10.838 76.6598 10.25 76.3118 9.854C75.9638 9.446 75.4718 9.242 74.8358 9.242C74.1998 9.242 73.7078 9.446 73.3598 9.854C73.0118 10.25 72.8198 10.838 72.7838 11.618L72.7658 12.32L72.7838 13.022C72.8198 13.802 73.0118 14.396 73.3598 14.804C73.7078 15.2 74.1998 15.398 74.8358 15.398ZM83.6405 17C83.4845 17 83.3585 16.964 83.2625 16.892C83.1785 16.808 83.1065 16.694 83.0465 16.55L80.4725 8.198C80.4605 8.162 80.4545 8.108 80.4545 8.036C80.4545 7.928 80.4905 7.838 80.5625 7.766C80.6465 7.682 80.7365 7.64 80.8325 7.64H82.1645C82.2965 7.64 82.4045 7.676 82.4885 7.748C82.5725 7.82 82.6265 7.898 82.6505 7.982L84.4145 13.94L86.2865 8.036C86.3225 7.928 86.3825 7.838 86.4665 7.766C86.5625 7.682 86.6825 7.64 86.8265 7.64H87.7265C87.8705 7.64 87.9845 7.682 88.0685 7.766C88.1645 7.838 88.2305 7.928 88.2665 8.036L90.1385 13.94L91.9025 7.982C91.9145 7.898 91.9625 7.82 92.0465 7.748C92.1425 7.676 92.2505 7.64 92.3705 7.64H93.7025C93.8105 7.64 93.9005 7.682 93.9725 7.766C94.0565 7.838 94.0985 7.928 94.0985 8.036L94.0625 8.198L91.4885 16.55C91.4405 16.694 91.3685 16.808 91.2725 16.892C91.1885 16.964 91.0685 17 90.9125 17H89.7425C89.4305 17 89.2325 16.85 89.1485 16.55L87.2765 10.862L85.4045 16.55C85.3085 16.85 85.1045 17 84.7925 17H83.6405Z" fill="#3888FF"/>
<path d="M126.601 11.101C126.933 10.7691 126.933 10.2309 126.601 9.89896L121.192 4.48959C120.86 4.15765 120.322 4.15765 119.99 4.48959C119.658 4.82154 119.658 5.35973 119.99 5.69168L124.798 10.5L119.99 15.3083C119.658 15.6403 119.658 16.1785 119.99 16.5104C120.322 16.8424 120.86 16.8424 121.192 16.5104L126.601 11.101ZM105 11.35L126 11.35L126 9.65L105 9.65L105 11.35Z" fill="#3888FF"/>
</svg>
